<?xml version="1.0" encoding="UTF-8"?>
<!DOCTYPE svg PUBLIC "-//W3C//DTD SVG 1.1//EN" "http://www.w3.org/Graphics/SVG/1.1/DTD/svg11.dtd">
<!-- Creator: CorelDRAW X8 -->
<svg xmlns="http://www.w3.org/2000/svg" xml:space="preserve" width="50.9392mm" height="24.4959mm" version="1.1" style="shape-rendering:geometricPrecision; text-rendering:geometricPrecision; image-rendering:optimizeQuality; fill-rule:evenodd; clip-rule:evenodd"
viewBox="0 0 12974 6239"
 xmlns:xlink="http://www.w3.org/1999/xlink">
 <defs>
  <style type="text/css">
   <![CDATA[
    .str0 {stroke:#FEFEFE;stroke-width:149.787}
    .fil3 {fill:none}
    .fil0 {fill:none;fill-rule:nonzero}
    .fil7 {fill:#FEFEFE}
    .fil4 {fill:#FEFEFE}
    .fil1 {fill:#332C2B}
    .fil5 {fill:#185D3C}
    .fil6 {fill:#FEFEFE}
    .fil2 {fill:#332C2B;fill-rule:nonzero}
   ]]>
  </style>
 </defs>
 <g id="Layer_x0020_1">
  <metadata id="CorelCorpID_0Corel-Layer"/>
  <g id="_2028443372096">
   <g>
    <path class="fil0 str0" d="M2667 1411c11,-122 41,-239 92,-352 266,-53 540,-49 819,4 35,114 54,229 50,345 146,41 280,100 408,171 92,-82 196,-146 320,-181 203,145 386,327 543,551 -44,121 -109,222 -183,314 59,118 112,238 152,366 122,14 240,43 354,106 46,255 49,517 -2,785 -114,36 -236,52 -350,58 -43,140 -88,265 -151,376 89,103 147,202 187,316 -157,220 -343,425 -570,580 -105,-37 -211,-107 -318,-193 -116,66 -246,119 -382,166 -1,115 -27,230 -76,347 -259,50 -520,53 -782,6 -50,-115 -76,-232 -87,-349 -134,-30 -261,-86 -386,-155 -112,97 -220,154 -324,184 -209,-129 -392,-311 -555,-538 44,-120 103,-226 178,-319 -76,-127 -132,-261 -179,-398 -114,18 -229,3 -345,-46 -52,-265 -56,-531 -11,-799 114,-45 229,-76 344,-83 44,-147 101,-287 175,-416 -83,-77 -146,-179 -191,-305 163,-235 347,-421 571,-571 109,51 212,111 303,191 131,-72 263,-128 396,-161zm479 304c779,0 1411,627 1411,1400 0,773 -632,1400 -1411,1400 -779,0 -1410,-627 -1410,-1400 0,-773 631,-1400 1410,-1400z"/>
    <path class="fil1" d="M2667 1411c11,-122 41,-239 92,-352 266,-53 540,-49 819,4 35,114 54,229 50,345 146,41 280,100 408,171 92,-82 196,-146 320,-181 203,145 386,327 543,551 -44,121 -109,222 -183,314 59,118 112,238 152,366 122,14 240,43 354,106 46,255 49,517 -2,785 -114,36 -236,52 -350,58 -43,140 -88,265 -151,376 89,103 147,202 187,316 -157,220 -343,425 -570,580 -105,-37 -211,-107 -318,-193 -116,66 -246,119 -382,166 -1,115 -27,230 -76,347 -259,50 -520,53 -782,6 -50,-115 -76,-232 -87,-349 -134,-30 -261,-86 -386,-155 -112,97 -220,154 -324,184 -209,-129 -392,-311 -555,-538 44,-120 103,-226 178,-319 -76,-127 -132,-261 -179,-398 -114,18 -229,3 -345,-46 -52,-265 -56,-531 -11,-799 114,-45 229,-76 344,-83 44,-147 101,-287 175,-416 -83,-77 -146,-179 -191,-305 163,-235 347,-421 571,-571 109,51 212,111 303,191 131,-72 263,-128 396,-161zm479 304c779,0 1411,627 1411,1400 0,773 -632,1400 -1411,1400 -779,0 -1410,-627 -1410,-1400 0,-773 631,-1400 1410,-1400z"/>
    <path class="fil2" d="M1406 4567l51 54 -36 73 92 98 75 -32 49 53 -336 133 -49 -53 154 -326zm-12 181l-60 119 123 -52 -63 -67zm-17 -213l-275 191 -39 -56 228 -158 -97 -138 46 -32 137 193zm-167 -241l-293 162 -33 -60 243 -133 -82 -148 50 -27 115 206zm-192 -373l-316 120 -24 -63 315 -120 25 63zm-55 -126l-329 76 -15 -64 189 -184 -220 50 -14 -61 329 -76 16 67 -184 180 214 -49 14 61zm-415 -309l-9 -123c-2,-28 -1,-49 2,-64 4,-20 13,-38 27,-53 14,-15 32,-26 53,-35 21,-9 47,-15 79,-17 27,-2 51,0 72,6 25,6 46,17 62,31 12,11 22,26 30,46 6,14 10,34 12,59l9 127 -337 23zm52 -71l223 -16 -4 -50c-1,-19 -3,-32 -6,-41 -3,-10 -8,-19 -16,-26 -7,-7 -18,-12 -33,-15 -16,-4 -36,-5 -63,-3 -26,2 -45,6 -59,11 -14,6 -24,13 -31,22 -8,8 -12,19 -14,32 -1,10 -1,28 1,56l2 30zm265 -292l-337 -12 2 -67 337 11 -2 68zm40 -437l-10 73 -80 18 -19 133 72 38 -10 71 -316 -176 10 -71 353 -86zm-150 105l-130 28 117 63 13 -91zm167 -273l-319 -109 46 -134c12,-34 23,-58 35,-71 11,-14 25,-22 43,-27 18,-4 36,-3 55,4 24,8 41,22 52,41 11,19 14,44 8,73 13,-11 26,-20 39,-25 13,-6 34,-12 64,-19l76 -18 -27 77 -85 23c-31,7 -50,13 -59,17 -9,4 -15,9 -20,15 -5,6 -10,16 -15,31l-4 13 133 45 -22 64zm-162 -127l16 -47c11,-31 16,-50 16,-59 0,-8 -2,-16 -7,-22 -5,-7 -12,-12 -22,-15 -10,-4 -20,-4 -29,0 -8,3 -15,10 -21,20 -2,4 -8,20 -17,46l-17 50 81 27zm-18 -350l32 -60 162 85c25,14 42,22 51,24 13,4 26,3 39,-3 13,-5 23,-16 32,-33 9,-17 13,-32 10,-44 -2,-12 -8,-22 -17,-29 -9,-7 -26,-17 -49,-29l-165 -88 32 -59 156 82c36,19 61,34 74,45 13,11 22,24 27,38 6,14 8,30 6,47 -2,18 -9,39 -21,62 -16,29 -30,48 -45,59 -14,11 -29,18 -44,21 -15,3 -29,3 -42,0 -19,-5 -45,-17 -79,-34l-159 -84zm191 -342l79 -109c16,-21 28,-37 38,-46 9,-9 20,-16 32,-20 12,-4 24,-6 38,-4 14,1 26,6 38,14 13,10 22,21 28,36 5,15 7,30 3,45 17,-13 35,-20 53,-20 18,-1 35,5 51,16 12,9 22,21 30,35 8,14 11,29 11,44 0,15 -5,30 -14,46 -6,10 -21,32 -46,67l-68 93 -273 -197zm85 -22l63 45 27 -36c15,-21 25,-35 28,-40 6,-10 8,-20 6,-29 -1,-10 -6,-17 -15,-24 -9,-6 -17,-9 -26,-8 -9,1 -17,6 -25,14 -4,5 -16,20 -35,46l-23 32zm109 78l73 53 37 -51c15,-20 23,-33 26,-39 4,-9 6,-18 4,-28 -2,-9 -8,-17 -18,-24 -8,-6 -17,-9 -25,-9 -9,0 -17,2 -25,8 -8,6 -21,21 -40,46l-32 44zm43 -365l94 -97c19,-19 33,-32 44,-40 11,-8 22,-13 35,-16 12,-2 24,-2 38,1 13,3 25,10 35,20 12,11 19,24 23,39 3,15 3,30 -3,45 19,-10 37,-14 55,-12 18,2 34,9 48,23 11,10 20,23 25,38 5,16 7,31 5,45 -3,15 -9,30 -20,44 -8,9 -26,29 -56,60l-80 82 -243 -232zm88 -10l56 53 31 -31c19,-19 30,-32 34,-37 7,-9 10,-18 10,-28 0,-9 -4,-17 -12,-25 -7,-7 -15,-11 -24,-11 -9,-1 -18,3 -26,10 -6,4 -19,18 -42,41l-27 28zm97 92l65 62 43 -45c18,-17 28,-29 31,-34 6,-9 9,-18 8,-27 -1,-10 -5,-19 -14,-27 -7,-7 -15,-11 -24,-12 -8,-2 -17,0 -26,4 -8,4 -24,18 -45,40l-38 39zm307 -89l-208 -265 198 -153 35 45 -144 111 46 59 134 -104 35 45 -134 104 57 71 149 -115 35 45 -203 157zm257 -192l-153 -298 128 -65c32,-16 56,-25 74,-27 17,-2 34,1 49,10 16,10 29,23 38,41 11,22 14,44 8,66 -5,21 -21,40 -45,57 17,1 32,4 45,9 14,5 33,15 60,31l67 39 -73 37 -77 -43c-28,-15 -46,-24 -55,-27 -9,-3 -17,-4 -25,-4 -7,2 -18,6 -32,13l-12 6 64 125 -61 30zm-28 -203l45 -23c29,-14 47,-25 53,-31 6,-6 9,-13 10,-21 1,-8 0,-17 -5,-26 -5,-10 -12,-16 -21,-20 -8,-3 -18,-3 -28,0 -6,2 -21,9 -45,21l-48 24 39 76zm457 3l-105 -319 65 -21 105 319 -65 21zm129 -45l-76 -326 65 -15 185 187 -50 -218 61 -14 76 326 -66 16 -183 -183 50 213 -62 14zm312 -404l125 -8c28,-2 49,-2 64,2 20,4 38,13 53,27 15,14 27,31 36,52 9,21 15,47 17,78 2,28 0,52 -6,72 -6,25 -17,45 -32,62 -11,12 -26,22 -45,30 -15,5 -35,9 -60,11l-128 9 -24 -335zm72 52l16 222 51 -4c19,-1 32,-3 41,-6 10,-3 19,-9 26,-16 7,-7 12,-18 16,-33 3,-16 4,-36 2,-62 -2,-26 -5,-45 -11,-59 -5,-14 -13,-24 -21,-31 -9,-7 -20,-12 -33,-14 -10,-1 -28,-1 -56,1l-31 2zm320 -70l68 4 -12 181c-2,29 -3,48 -2,56 2,14 8,26 19,35 10,9 25,14 44,16 19,1 34,-2 44,-9 11,-7 17,-17 20,-28 3,-11 5,-30 7,-56l13 -185 68 4 -12 176c-3,40 -7,68 -12,85 -5,16 -13,29 -23,40 -11,11 -25,19 -42,25 -17,5 -39,7 -65,5 -33,-2 -57,-7 -73,-16 -16,-8 -28,-19 -37,-31 -9,-13 -14,-26 -17,-39 -3,-19 -3,-48 0,-85l12 -178zm329 253l66 8c-1,23 4,40 13,53 10,13 24,22 45,26 21,5 38,4 51,-2 13,-7 21,-16 24,-28 2,-8 1,-15 -2,-21 -4,-7 -11,-13 -21,-20 -7,-4 -24,-13 -50,-26 -34,-17 -56,-34 -67,-50 -16,-22 -21,-47 -15,-72 3,-17 12,-32 25,-44 13,-12 29,-20 48,-24 20,-3 43,-2 68,4 41,9 70,25 87,48 17,23 22,50 16,80l-67 -13c1,-17 -2,-30 -10,-40 -8,-9 -21,-16 -39,-21 -20,-4 -36,-4 -49,2 -8,3 -13,9 -15,18 -2,7 0,15 5,22 7,9 26,21 56,36 31,15 53,28 67,39 13,12 23,26 28,42 6,16 6,34 1,55 -4,19 -13,35 -28,49 -14,14 -32,23 -53,26 -21,4 -45,2 -74,-4 -42,-10 -71,-27 -89,-51 -18,-24 -25,-55 -21,-92zm372 212l100 -260 -93 -36 20 -53 251 95 -21 53 -93 -35 -101 260 -63 -24zm205 80l164 -293 126 69c31,17 53,32 64,46 11,13 18,28 19,47 1,18 -4,36 -13,53 -13,22 -29,36 -50,44 -21,7 -46,5 -74,-5 9,14 15,28 18,42 4,13 6,35 8,66l4 77 -71 -39 -8 -88c-3,-31 -5,-51 -7,-60 -3,-9 -6,-16 -11,-22 -6,-6 -15,-12 -29,-20l-12 -7 -68 123 -60 -33zm154 -136l45 24c28,16 47,24 55,26 9,1 16,0 24,-3 7,-4 13,-10 18,-19 6,-10 7,-19 6,-28 -2,-9 -8,-17 -16,-24 -5,-4 -19,-12 -44,-25l-46 -26 -42 75zm140 306l194 -274 56 39 -194 274 -56 -39zm112 79l217 -257 192 160 -37 43 -139 -116 -48 57 129 108 -36 43 -130 -108 -59 70 144 120 -36 44 -197 -164zm316 120l49 46c-15,17 -22,34 -21,50 0,16 6,32 20,47 15,17 29,26 43,28 15,3 26,0 36,-8 6,-5 9,-12 10,-19 2,-7 0,-16 -5,-28 -3,-8 -11,-24 -24,-50 -17,-34 -26,-60 -25,-80 0,-27 10,-50 30,-67 13,-11 29,-18 46,-21 18,-2 36,1 54,10 18,8 35,22 52,42 28,32 42,61 42,90 0,28 -11,52 -34,73l-47 -49c11,-13 17,-26 16,-38 0,-12 -7,-26 -20,-40 -13,-15 -26,-24 -39,-27 -9,-2 -17,0 -23,6 -6,5 -9,12 -9,21 0,11 8,31 24,61 16,30 26,54 30,71 4,18 4,34 -2,51 -5,16 -15,31 -31,45 -15,12 -32,20 -52,23 -20,3 -39,0 -58,-10 -19,-9 -39,-25 -58,-47 -28,-32 -42,-63 -42,-93 0,-30 13,-59 38,-87zm348 697l-37 -64 51 -63 -67 -116 -81 14 -36 -62 359 -55 36 62 -225 284zm53 -174l85 -102 -131 23 46 79zm56 153l31 58c-19,12 -31,26 -37,41 -5,15 -3,32 5,51 8,20 18,34 31,41 13,6 25,8 36,3 8,-3 13,-8 17,-14 3,-6 5,-16 4,-28 0,-9 -3,-27 -7,-56 -5,-37 -4,-65 3,-83 9,-26 26,-44 51,-54 16,-6 33,-8 50,-4 18,3 33,12 48,26 14,14 26,32 35,56 16,39 20,72 10,99 -9,26 -28,46 -56,59l-28 -62c15,-9 24,-20 27,-31 4,-12 2,-27 -5,-44 -8,-18 -17,-31 -29,-38 -7,-5 -15,-6 -23,-3 -8,3 -13,9 -16,17 -3,11 -2,33 3,66 5,34 7,59 5,77 -2,18 -8,34 -18,47 -10,14 -25,25 -45,33 -18,7 -37,9 -56,5 -20,-4 -37,-13 -52,-28 -15,-15 -28,-36 -39,-63 -16,-39 -19,-73 -10,-102 10,-28 32,-51 65,-69zm119 310l22 62c-21,9 -35,21 -42,35 -7,15 -8,32 -3,52 5,21 14,36 26,44 11,9 23,11 35,9 8,-2 14,-6 18,-12 5,-6 7,-15 9,-27 0,-9 1,-27 1,-57 0,-37 4,-64 14,-82 13,-24 32,-39 58,-46 17,-4 33,-3 50,3 17,5 32,16 44,32 12,16 21,36 27,61 10,41 9,74 -4,99 -13,25 -34,42 -64,50l-19 -65c16,-6 27,-16 32,-27 5,-11 5,-25 0,-44 -5,-19 -12,-33 -23,-42 -7,-6 -14,-7 -23,-5 -8,2 -13,7 -17,14 -5,10 -7,32 -7,66 0,34 -2,60 -6,77 -4,17 -12,32 -24,44 -12,12 -28,21 -49,26 -19,5 -38,4 -57,-2 -19,-7 -35,-18 -47,-35 -13,-17 -23,-40 -30,-68 -10,-41 -9,-75 5,-102 14,-27 38,-47 74,-60zm135 325c35,-3 64,-1 88,7 18,7 34,16 49,28 15,12 26,25 34,40 11,20 17,44 20,71 4,49 -8,90 -36,122 -28,32 -70,51 -125,56 -54,4 -98,-7 -131,-33 -33,-27 -52,-65 -56,-114 -5,-50 7,-90 35,-122 28,-32 69,-51 122,-55zm9 69c-38,3 -67,15 -85,34 -18,19 -26,42 -23,69 2,27 14,48 35,63 21,16 51,22 90,19 38,-4 66,-15 84,-33 18,-18 25,-42 23,-69 -3,-28 -14,-50 -35,-65 -21,-15 -50,-21 -89,-18zm-43 547l-26 64c-36,-13 -62,-31 -78,-56 -16,-25 -23,-55 -21,-91 3,-44 21,-80 54,-106 32,-26 75,-38 128,-34 56,4 99,21 128,52 29,31 42,70 38,117 -3,40 -17,73 -43,97 -16,14 -37,24 -65,30l-11 -68c18,-3 32,-10 43,-22 11,-12 17,-27 18,-45 2,-25 -5,-45 -22,-62 -17,-17 -46,-27 -86,-29 -42,-3 -73,2 -92,16 -20,14 -30,33 -32,58 -1,18 4,33 14,47 11,14 28,24 53,32zm-140 117l333 58 -12 66 -333 -58 12 -66zm-107 429l19 -71 82 -9 35 -129 -67 -47 19 -69 292 213 -19 69 -361 43zm161 -86l134 -13 -110 -76 -24 89zm-200 156l256 113 41 -91 52 23 -109 244 -52 -23 41 -91 -257 -113 28 -62zm-89 195l296 162 -33 59 -296 -162 33 -59zm78 200c28,20 49,41 62,62 10,16 17,34 20,52 4,19 4,36 0,53 -5,22 -15,44 -31,67 -28,40 -64,64 -106,71 -43,6 -86,-6 -131,-37 -45,-31 -72,-68 -80,-109 -8,-42 2,-83 31,-123 28,-41 64,-65 106,-71 42,-7 85,5 129,35zm-38 59c-32,-22 -60,-31 -87,-28 -26,3 -47,16 -63,38 -15,22 -20,46 -14,71 6,25 25,49 57,71 32,22 61,32 86,29 25,-3 46,-16 62,-39 16,-23 21,-47 15,-72 -6,-24 -24,-48 -56,-70zm-329 155l247 229 -45 48 -260 -53 165 153 -43 46 -247 -228 47 -50 254 50 -161 -149 43 -46z"/>
    <path class="fil2" d="M2829 5693l-64 -9 33 -239c-26,18 -56,30 -89,36l8 -57c17,-4 37,-11 59,-24 21,-12 37,-28 47,-47l52 7 -46 333zm100 -64l63 -5c1,13 5,22 11,28 6,7 15,10 25,10 14,1 25,-5 35,-17 10,-12 17,-37 20,-75 -17,18 -37,27 -62,26 -26,-1 -49,-12 -67,-33 -19,-21 -28,-47 -27,-80 2,-34 13,-61 34,-81 21,-20 47,-30 78,-29 35,1 62,15 83,42 22,27 31,71 29,131 -2,61 -15,105 -39,132 -24,26 -54,38 -90,37 -27,-1 -48,-8 -64,-23 -16,-14 -25,-35 -29,-63zm151 -136c1,-20 -3,-37 -13,-48 -9,-12 -20,-18 -32,-19 -12,0 -22,4 -31,13 -8,9 -12,25 -13,46 -1,22 3,38 11,48 8,11 19,16 32,16 12,1 23,-4 32,-13 9,-10 14,-24 14,-43zm230 214l-6 -67 -137 12 -5 -56 126 -225 55 -5 19 212 41 -4 5 56 -41 4 6 67 -63 6zm-11 -124l-10 -114 -67 121 77 -7zm136 34l62 -19c4,14 12,24 22,31 11,6 22,8 33,6 14,-2 24,-10 31,-22 7,-13 8,-30 4,-52 -4,-20 -11,-34 -22,-42 -12,-9 -24,-11 -39,-8 -18,3 -33,14 -44,33l-53 3 -2 -178 168 -32 12 58 -120 24 1 58c13,-10 27,-16 42,-19 28,-6 54,0 77,16 24,17 39,41 45,74 6,27 3,53 -9,77 -16,33 -43,53 -81,61 -31,6 -57,2 -80,-10 -22,-13 -38,-32 -47,-59z"/>
    <path class="fil1" d="M2016 5183c75,0 135,56 135,125 0,68 -60,124 -135,124 -74,0 -134,-56 -134,-124 0,-69 60,-125 134,-125z"/>
    <path class="fil1" d="M4279 5202c74,0 134,56 134,125 0,68 -60,124 -134,124 -75,0 -135,-56 -135,-124 0,-69 60,-125 135,-125z"/>
    <path class="fil2" d="M2267 3339l-213 0 -29 111 -190 0 226 -670 204 0 227 670 -196 0 -29 -111zm-39 -145l-67 -241 -66 241 133 0zm331 -414l186 0 0 670 -186 0 0 -670zm323 670l0 -670 311 0c57,0 101,5 132,16 30,11 55,32 73,61 19,30 28,66 28,109 0,37 -7,69 -21,96 -14,27 -34,49 -59,66 -16,10 -38,19 -65,26 22,8 38,16 48,25 7,5 17,17 30,35 13,18 22,32 26,41l90 195 -210 0 -100 -205c-13,-27 -24,-44 -34,-52 -13,-10 -29,-15 -46,-15l-16 0 0 272 -187 0zm187 -399l79 0c8,0 25,-3 49,-9 12,-3 23,-10 30,-21 8,-11 12,-24 12,-39 0,-21 -6,-38 -19,-50 -12,-11 -35,-17 -69,-17l-82 0 0 136zm473 -271l187 0 0 670 -187 0 0 -670zm692 559l-212 0 -29 111 -191 0 227 -670 203 0 227 670 -195 0 -30 -111zm-39 -145l-66 -241 -67 241 133 0z"/>
   </g>
   <rect class="fil3" width="6239" height="6239"/>
  </g>
  <g id="_2028443373248">
   <rect class="fil4" x="6735" width="6239" height="6239"/>
   <path class="fil5" d="M9715 4796l111 246c112,-46 50,-244 221,-247 112,-1 150,160 195,253 23,50 162,309 -4,262 -74,-20 -106,-248 -179,-287 -76,81 -70,335 -198,338 -144,4 -128,-259 -207,-342 -71,33 -82,162 -118,231 -45,85 -194,93 -119,-71 54,-117 129,-430 298,-383zm-1249 65c-22,-79 94,-206 135,-264 39,-54 133,-207 174,-232 121,-35 384,203 388,327 4,150 -80,148 -167,188 -88,40 -31,205 -161,200 -88,-125 31,-230 -97,-297 -159,-82 -93,128 -272,78zm2319 77c-3,29 66,334 -69,216 -22,-20 -96,-207 -117,-254 -111,-256 -170,-305 142,-409 448,-148 266,231 338,310 29,31 80,46 74,112 -6,76 -74,53 -116,30 -141,-75 -121,-112 -252,-5zm-2321 -774c65,-43 137,6 101,76l-358 308c-71,35 -135,0 -106,-82 11,-31 84,-81 116,-106 70,-57 169,-145 247,-196zm3082 493c-90,56 -163,-164 -201,-233 -42,-79 -157,-241 -101,-314 77,-102 248,-11 344,22 90,31 288,52 275,167 -146,66 -159,-64 -290,90 -125,148 52,177 -27,268zm-2052 -3137l587 2 6 121c452,82 744,306 1031,516l892 655 -48 136c-126,-43 -459,-334 -564,-236l-2 210c-2,904 -635,1584 -1521,1586 -785,2 -1446,-641 -1448,-1439 -1,-515 271,-953 657,-1208 48,-31 406,-197 410,-204l0 -139zm-250 -207l1076 1 -3 124 -1073 0 0 -125zm230 -192l619 1 1 73 -623 -2 3 -72zm-76 405l-1 73c-188,49 -388,181 -511,286 -89,75 -122,111 -196,198 -58,66 -116,176 -167,229l-743 -457c129,-287 516,-627 782,-796 746,-473 1707,-494 2480,-63 259,144 715,517 817,747l-585 398c-140,-69 -323,-243 -494,-344 -105,-61 -445,-230 -586,-232 -32,-21 -21,0 -23,-41 50,-25 179,-9 243,-13l4 -285 -221 0 -2 -198 -817 -6 -9 212 -226 0 2 280c47,-2 93,-1 140,-1 46,-1 79,-8 113,13zm247 -938c-769,87 -1348,431 -1697,851 -375,452 -696,1062 -629,1890 111,1373 1309,2451 2751,2332 1318,-110 2451,-1272 2320,-2756 -115,-1298 -1303,-2480 -2745,-2317z"/>
   <path class="fil5" d="M9537 492c1552,-206 2804,991 2954,2322 178,1581 -980,2778 -2327,2943 -1514,186 -2793,-944 -2946,-2327 -175,-1580 969,-2759 2319,-2938zm138 -117c-443,43 -724,117 -1080,299 -576,294 -1068,827 -1306,1445 -722,1880 683,3857 2758,3753 1411,-70 2670,-1358 2557,-2930 -103,-1434 -1385,-2719 -2929,-2567z"/>
   <path class="fil5" d="M10343 4364c82,-116 -262,-357 -36,-505 54,-35 174,-103 136,-209 -28,-76 -193,-19 -284,-31 -79,-64 -37,-111 -158,-159 -64,-25 -186,-65 -255,-52 -32,103 -20,377 -44,522 -15,91 -110,419 -73,469 85,44 124,-53 191,-71 119,-31 88,79 165,112l10 9c22,-25 98,-97 101,-124l247 39z"/>
   <path class="fil5" d="M10018 2093c-98,-13 -83,64 -187,51 -70,-10 -102,-59 -190,-59 -26,62 74,440 89,552 12,90 11,229 28,307 24,111 120,97 151,181l-54 0c-27,-1 -56,2 -69,14 40,35 110,64 93,94 -22,39 -74,30 -93,52 18,31 173,88 215,106 33,-2 -6,-47 -51,-96 -7,-47 54,-13 56,-69 -2,-33 -37,-28 -48,-81 93,-129 47,-73 51,-246 5,-206 72,-715 9,-806z"/>
   <path class="fil6" d="M9715 4796c-169,-47 -244,266 -298,383 -75,164 74,156 119,71 36,-69 47,-198 118,-231 79,83 63,346 207,342 128,-3 122,-257 198,-338 73,39 105,267 179,287 166,47 27,-212 4,-262 -45,-93 -83,-254 -195,-253 -171,3 -109,201 -221,247l-111 -246z"/>
   <path class="fil6" d="M10895 4581c47,87 27,115 -46,165 -43,30 -106,95 -165,46 -63,-52 -30,-123 32,-156 49,-27 113,-74 179,-55zm-110 357c131,-107 111,-70 252,5 42,23 110,46 116,-30 6,-66 -45,-81 -74,-112 -72,-79 110,-458 -338,-310 -312,104 -253,153 -142,409 21,47 95,234 117,254 135,118 66,-187 69,-216z"/>
   <path class="fil6" d="M8796 4532c59,-32 122,28 173,59 108,64 82,238 -175,90 -70,-41 -58,-118 2,-149zm-330 329c179,50 113,-160 272,-78 128,67 9,172 97,297 130,5 73,-160 161,-200 87,-40 171,-38 167,-188 -4,-124 -267,-362 -388,-327 -41,25 -135,178 -174,232 -41,58 -157,185 -135,264z"/>
   <path class="fil6" d="M11529 4228c-14,42 -50,92 -86,110 -23,-48 -66,-89 -73,-154 59,4 105,25 159,44zm17 429c79,-91 -98,-120 27,-268 131,-154 144,-24 290,-90 13,-115 -185,-136 -275,-167 -96,-33 -267,-124 -344,-22 -56,73 59,235 101,314 38,69 111,289 201,233z"/>
   <polygon class="fil7" points="9244,1438 10317,1438 10320,1314 9244,1313 "/>
   <path class="fil6" d="M8464 4164c-78,51 -177,139 -247,196 -32,25 -105,75 -116,106 -29,82 35,117 106,82l358 -308c36,-70 -36,-119 -101,-76z"/>
   <polygon class="fil7" points="9471,1193 10094,1195 10093,1122 9474,1121 "/>
   <path class="fil5" d="M10255 2727c11,116 328,117 272,-26 -14,-36 -94,-87 -152,-95 -74,-10 -127,51 -120,121z"/>
   <path class="fil5" d="M10228 2304c-128,68 -16,245 148,190 179,-61 -28,-253 -148,-190z"/>
   <path class="fil5" d="M9057 2225c-80,45 -58,82 13,152 42,41 93,91 158,48 123,-79 -45,-270 -171,-200z"/>
   <path class="fil5" d="M10895 4581c-66,-19 -130,28 -179,55 -62,33 -95,104 -32,156 59,49 122,-16 165,-46 73,-50 93,-78 46,-165z"/>
   <path class="fil5" d="M8796 4532c-60,31 -72,108 -2,149 257,148 283,-26 175,-90 -51,-31 -114,-91 -173,-59z"/>
   <path class="fil5" d="M9248 1943c-59,107 85,261 168,217 124,-67 -6,-253 -168,-217z"/>
   <path class="fil5" d="M10657 2424c55,34 53,48 149,20 60,-17 91,-49 86,-122 -109,-75 -249,-100 -235,102z"/>
   <path class="fil5" d="M9177 2696c21,-206 -217,-136 -249,-91 -43,58 36,95 88,113 73,24 93,10 161,-22z"/>
   <path class="fil5" d="M9543 2629c81,-167 -99,-202 -160,-62 -63,144 85,215 160,62z"/>
   <path class="fil5" d="M9783 1701c-16,49 -50,103 -40,175 26,176 189,119 151,-52 -17,-76 -41,-112 -111,-123z"/>
   <path class="fil5" d="M11014 2736c41,-59 60,-114 -26,-140 -97,-29 -147,9 -145,99 72,49 70,58 171,41z"/>
   <path class="fil5" d="M10491 2014c-30,14 -29,-5 -46,45 -25,77 42,140 131,104 101,-40 23,-200 -85,-149z"/>
   <path class="fil5" d="M10270 1921c21,-34 22,-66 -3,-97 -75,-6 -147,26 -135,104 16,104 110,14 138,-7z"/>
   <path class="fil5" d="M11443 4338c36,-18 72,-68 86,-110 -54,-19 -100,-40 -159,-44 7,65 50,106 73,154z"/>
  </g>
 </g>
</svg>
