<?xml version="1.0" encoding="UTF-8"?>
<!DOCTYPE svg PUBLIC "-//W3C//DTD SVG 1.1//EN" "http://www.w3.org/Graphics/SVG/1.1/DTD/svg11.dtd">
<!-- Creator: CorelDRAW X8 -->
<svg xmlns="http://www.w3.org/2000/svg" xml:space="preserve" width="115mm" height="42.257mm" version="1.1" style="shape-rendering:geometricPrecision; text-rendering:geometricPrecision; image-rendering:optimizeQuality; fill-rule:evenodd; clip-rule:evenodd"
viewBox="0 0 9164 3367"
 xmlns:xlink="http://www.w3.org/1999/xlink">
 <defs>
  <style type="text/css">
   <![CDATA[
    .fil0 {fill:#FEFEFE}
    .fil1 {fill:black;fill-rule:nonzero}
    .fil3 {fill:#00B25A;fill-rule:nonzero}
    .fil2 {fill:#1268B3;fill-rule:nonzero}
   ]]>
  </style>
 </defs>
 <g id="Layer_x0020_1">
  <metadata id="CorelCorpID_0Corel-Layer"/>
  <rect class="fil0" width="9164" height="3367"/>
  <g id="_2153167359280">
   <path class="fil1" d="M8721 897c30,30 45,69 45,117 0,49 -15,88 -45,118 -29,30 -68,44 -117,44 -48,0 -87,-14 -117,-44 -29,-30 -44,-69 -44,-118 0,-48 15,-87 44,-117 30,-29 69,-44 117,-44 49,0 88,15 117,44zm-18 216c25,-24 38,-58 38,-99 0,-41 -13,-73 -38,-98 -25,-25 -58,-37 -98,-37 -41,0 -74,12 -99,37 -24,25 -37,57 -37,98 0,41 13,75 37,99 25,25 58,38 99,38 40,0 73,-13 98,-38zm-65 -86c14,22 29,41 44,60l-1 3c-7,4 -19,6 -35,7l-4 -2c-12,-19 -24,-38 -35,-59l-29 0 0 3 2 56 -36 0 1 -52 -1 -120 69 0c18,0 33,5 43,13 10,10 15,22 15,39 0,22 -11,39 -33,52zm-29 -19c17,-6 25,-16 25,-30 0,-17 -11,-27 -33,-28l-21 1 -1 56 30 1z"/>
   <path class="fil2" d="M964 2032l347 0 -199 482 -148 0 -566 0 0 -482 0 -1179 566 0 0 1179zm4674 482l566 0 0 -1661 -566 0 0 1661zm-3751 -1144l0 -38 0 -78c0,-254 -151,-401 -340,-401l-181 0 -391 517 346 0 0 662 0 482 566 0 147 0 199 -482 -346 0 0 -662zm929 0l0 -38 0 -78c0,-254 -151,-401 -339,-401l-182 0 -391 517 347 0 0 662 0 482 565 0 148 0 199 -482 -347 0 0 -662zm961 -34l401 0 0 -483 -448 0c-279,0 -519,218 -519,456 0,9 2,16 3,23l-3 0 0 727c0,238 240,455 519,455l480 0 199 -482 -632 0 0 -696zm1203 0l400 0 0 -483 -448 0c-279,0 -518,218 -518,456 0,9 1,16 2,23l-2 0 0 727c0,238 239,455 518,455l480 0 199 -482 -631 0 0 -696z"/>
   <path class="fil3" d="M8138 2032l0 -1179 -395 0 -171 0 -707 0c-278,0 -518,218 -518,456 0,9 2,16 3,23l-3 0 0 727c0,238 240,455 518,455l481 0 199 -482 -632 0 0 -696 659 0 0 1178 215 0 351 0 119 0 199 -482 -318 0z"/>
  </g>
 </g>
</svg>
