<?xml version="1.0" encoding="UTF-8"?>
<!DOCTYPE svg PUBLIC "-//W3C//DTD SVG 1.1//EN" "http://www.w3.org/Graphics/SVG/1.1/DTD/svg11.dtd">
<!-- Creator: CorelDRAW X8 -->
<svg xmlns="http://www.w3.org/2000/svg" xml:space="preserve" width="115mm" height="42.257mm" version="1.1" style="shape-rendering:geometricPrecision; text-rendering:geometricPrecision; image-rendering:optimizeQuality; fill-rule:evenodd; clip-rule:evenodd"
viewBox="0 0 8126 2986"
 xmlns:xlink="http://www.w3.org/1999/xlink">
 <defs>
  <style type="text/css">
   <![CDATA[
    .fil0 {fill:#FEFEFE}
    .fil5 {fill:black}
    .fil2 {fill:#1283C6}
    .fil4 {fill:#818487}
    .fil6 {fill:black;fill-rule:nonzero}
    .fil1 {fill:#1283C6;fill-rule:nonzero}
    .fil3 {fill:#818487;fill-rule:nonzero}
   ]]>
  </style>
 </defs>
 <g id="Layer_x0020_1">
  <metadata id="CorelCorpID_0Corel-Layer"/>
  <rect class="fil0" width="8126" height="2986"/>
  <g id="_2152931694352">
   <polygon class="fil1" points="354,368 354,2106 1101,2106 1101,1882 736,1882 736,1272 1061,1272 1061,1061 736,1061 736,592 1096,592 1096,368 "/>
   <polygon class="fil1" points="1163,368 1163,2106 1910,2106 1910,1882 1546,1882 1546,1272 1871,1272 1871,1061 1546,1061 1546,592 1906,592 1906,368 "/>
   <path class="fil2" d="M2345 1217l0 -601c85,0 127,30 127,92l0 417c0,62 -42,92 -127,92zm405 181c62,-47 94,-126 94,-240l0 -482c0,-124 -39,-206 -116,-248 -77,-40 -194,-60 -353,-60l-402 0 0 1738 372 0 0 -641c206,3 343,-19 405,-67z"/>
   <path class="fil2" d="M3750 661c0,-206 -131,-308 -397,-308 -296,0 -442,112 -442,338l0 1117c0,208 146,313 442,313 102,0 193,-25 275,-75 82,-49 122,-116 122,-198l0 -442 -347 0 0 429c0,27 -18,42 -53,42 -37,0 -57,-15 -57,-42l0 -1201c0,-27 20,-42 57,-42 35,0 53,15 53,42l0 342 347 0 0 -315z"/>
   <polygon class="fil3" points="3827,2106 4209,2106 4209,368 3827,368 "/>
   <polygon class="fil4" points="5257,368 4940,368 4940,1160 4719,368 4284,368 4284,2106 4602,2106 4602,1180 4865,2106 5257,2106 "/>
   <path class="fil4" d="M5716 1882l0 -1290c72,0 109,29 109,92l0 1107c0,62 -37,91 -109,91zm97 224c112,0 206,-30 280,-90 77,-62 114,-146 114,-253l0 -1052c0,-117 -39,-201 -121,-258 -80,-57 -174,-85 -276,-85l-476 0 0 1738 479 0z"/>
   <polygon class="fil3" points="6282,2106 6664,2106 6664,368 6282,368 "/>
   <path class="fil4" d="M7190 1398l53 -518 54 518 -107 0zm296 -1030l-487 0 -285 1738 380 0 64 -467 169 0 64 467 380 0 -285 -1738z"/>
   <polygon class="fil5" points="353,2628 501,2628 501,2591 396,2591 396,2506 492,2506 492,2470 396,2470 396,2395 498,2395 498,2359 353,2359 "/>
   <polygon class="fil5" points="707,2628 747,2628 747,2422 748,2422 826,2628 878,2628 878,2359 838,2359 838,2559 837,2559 759,2359 707,2359 "/>
   <path class="fil5" d="M1228 2628l32 0 0 -142 -86 0 0 32 46 0c0,59 -12,83 -45,82 -29,0 -43,-21 -43,-108 0,-86 16,-106 46,-106 30,0 38,24 38,44l0 6 40 0 0 -5c0,-24 -11,-77 -78,-77 -62,0 -89,43 -89,139 0,92 19,136 73,140l13 0c27,-2 41,-14 52,-37l1 0 0 32z"/>
   <polygon class="fil6" points="1468,2628 1511,2628 1511,2359 1468,2359 "/>
   <polygon class="fil5" points="1726,2628 1766,2628 1766,2422 1767,2422 1845,2628 1897,2628 1897,2359 1857,2359 1857,2559 1856,2559 1778,2359 1726,2359 "/>
   <polygon class="fil5" points="2114,2628 2262,2628 2262,2591 2157,2591 2157,2506 2253,2506 2253,2470 2157,2470 2157,2395 2259,2395 2259,2359 2114,2359 "/>
   <polygon class="fil5" points="2468,2628 2616,2628 2616,2591 2510,2591 2510,2506 2607,2506 2607,2470 2510,2470 2510,2395 2613,2395 2613,2359 2468,2359 "/>
   <path class="fil5" d="M2864 2479l0 -88 36 0c29,0 41,15 41,44 0,27 -15,44 -43,44l-34 0zm-43 148l43 0 0 -116 35 0c29,0 38,13 39,42 1,20 0,35 2,51 1,10 3,19 7,23l49 0c-6,-3 -12,-10 -13,-23 -1,-16 -1,-37 -2,-54 -1,-38 -15,-53 -42,-55l0 -1c29,-4 45,-31 45,-66 0,-50 -31,-69 -68,-69l-95 0 0 268z"/>
   <polygon class="fil6" points="3194,2628 3236,2628 3236,2359 3194,2359 "/>
   <polygon class="fil5" points="3452,2628 3492,2628 3492,2422 3493,2422 3571,2628 3623,2628 3623,2359 3582,2359 3582,2559 3582,2559 3504,2359 3452,2359 "/>
   <path class="fil5" d="M3973 2628l32 0 0 -142 -86 0 0 32 45 0c0,59 -12,83 -44,82 -29,0 -43,-21 -43,-108 0,-86 16,-106 46,-106 29,0 38,24 38,44l0 6 40 0 0 -5c0,-24 -11,-77 -78,-77 -62,0 -89,43 -89,139 0,92 19,136 73,140l13 0c27,-2 41,-14 52,-37l1 0 0 32z"/>
   <polygon class="fil5" points="4507,2628 4550,2628 4550,2395 4613,2395 4613,2359 4444,2359 4444,2395 4507,2395 "/>
   <polygon class="fil5" points="4810,2628 4853,2628 4853,2503 4932,2503 4932,2628 4975,2628 4975,2359 4932,2359 4932,2467 4853,2467 4853,2359 4810,2359 "/>
   <polygon class="fil5" points="5192,2628 5340,2628 5340,2591 5235,2591 5235,2506 5331,2506 5331,2470 5235,2470 5235,2395 5337,2395 5337,2359 5192,2359 "/>
   <polygon class="fil5" points="5808,2628 5851,2628 5851,2506 5945,2506 5945,2470 5851,2470 5851,2395 5951,2395 5951,2359 5808,2359 "/>
   <path class="fil5" d="M6151 2359l0 189c0,59 28,82 75,85l15 0c47,-3 75,-26 75,-85l0 -189 -43 0 0 193c0,33 -14,48 -39,48 -26,0 -40,-15 -40,-48l0 -193 -43 0z"/>
   <polygon class="fil5" points="6573,2628 6616,2628 6616,2395 6679,2395 6679,2359 6509,2359 6509,2395 6573,2395 "/>
   <path class="fil5" d="M6872 2359l0 189c0,59 28,82 75,85l15 0c47,-3 75,-26 75,-85l0 -189 -43 0 0 193c0,33 -14,48 -39,48 -26,0 -40,-15 -40,-48l0 -193 -43 0z"/>
   <path class="fil5" d="M7293 2479l0 -88 37 0c28,0 40,15 40,44 0,27 -15,44 -43,44l-34 0zm-43 148l43 0 0 -116 35 0c29,0 39,13 39,42 1,20 1,35 2,51 1,10 3,19 7,23l49 0c-6,-3 -12,-10 -13,-23 -1,-16 -1,-37 -1,-54 -2,-38 -16,-53 -43,-55l0 -1c30,-4 45,-31 45,-66 0,-50 -30,-69 -68,-69l-95 0 0 268z"/>
   <polygon class="fil5" points="7625,2628 7773,2628 7773,2591 7668,2591 7668,2506 7764,2506 7764,2470 7668,2470 7668,2395 7770,2395 7770,2359 7625,2359 "/>
  </g>
 </g>
</svg>
