<?xml version="1.0" encoding="UTF-8"?>
<!DOCTYPE svg PUBLIC "-//W3C//DTD SVG 1.1//EN" "http://www.w3.org/Graphics/SVG/1.1/DTD/svg11.dtd">
<!-- Creator: CorelDRAW X8 -->
<svg xmlns="http://www.w3.org/2000/svg" xml:space="preserve" width="101.209mm" height="135.185mm" version="1.1" style="shape-rendering:geometricPrecision; text-rendering:geometricPrecision; image-rendering:optimizeQuality; fill-rule:evenodd; clip-rule:evenodd"
viewBox="0 0 10121 13519"
 xmlns:xlink="http://www.w3.org/1999/xlink">
 <defs>
  <style type="text/css">
   <![CDATA[
    .str0 {stroke:#FEFEFE;stroke-width:58.81}
    .fil14 {fill:none;fill-rule:nonzero}
    .fil0 {fill:#FEFEFE}
    .fil6 {fill:black}
    .fil3 {fill:#1283C6}
    .fil17 {fill:#185D3C}
    .fil15 {fill:#332C2B}
    .fil5 {fill:#818487}
    .fil1 {fill:#FEFEFE}
    .fil7 {fill:black;fill-rule:nonzero}
    .fil9 {fill:#00B25A;fill-rule:nonzero}
    .fil8 {fill:#1268B3;fill-rule:nonzero}
    .fil2 {fill:#1283C6;fill-rule:nonzero}
    .fil16 {fill:#332C2B;fill-rule:nonzero}
    .fil12 {fill:#535150;fill-rule:nonzero}
    .fil4 {fill:#818487;fill-rule:nonzero}
    .fil13 {fill:#8B8B8C;fill-rule:nonzero}
    .fil10 {fill:#B01C2E;fill-rule:nonzero}
    .fil11 {fill:#CF142B;fill-rule:nonzero}
   ]]>
  </style>
 </defs>
 <g id="Layer_x0020_1">
  <metadata id="CorelCorpID_0Corel-Layer"/>
  <rect class="fil0" width="10121" height="13519"/>
  <g id="_2368174084960">
   <g id="_2015413025280">
    <rect class="fil1" x="1919" y="8001" width="6284" height="2309"/>
    <g id="_2152931694352">
     <polygon class="fil2" points="2192,8285 2192,9629 2770,9629 2770,9456 2488,9456 2488,8984 2739,8984 2739,8821 2488,8821 2488,8459 2766,8459 2766,8285 "/>
     <polygon class="fil2" points="2818,8285 2818,9629 3396,9629 3396,9456 3114,9456 3114,8984 3366,8984 3366,8821 3114,8821 3114,8459 3393,8459 3393,8285 "/>
     <path class="fil3" d="M3732 8942l0 -465c65,0 99,24 99,71l0 323c0,48 -34,71 -99,71l0 0zm313 140c48,-37 73,-98 73,-185l0 -373c0,-96 -30,-160 -90,-193 -59,-30 -150,-46 -273,-46l-311 0 0 1344 288 0 0 -495c159,2 265,-15 313,-52l0 0z"/>
     <path class="fil3" d="M4818 8512c0,-160 -101,-238 -306,-238 -229,0 -343,87 -343,261l0 864c0,161 114,242 343,242 78,0 148,-19 212,-58 64,-38 94,-90 94,-153l0 -342 -267 0 0 332c0,21 -15,33 -42,33 -28,0 -44,-12 -44,-33l0 -929c0,-21 16,-32 44,-32 27,0 42,11 42,32l0 265 267 0 0 -244 0 0z"/>
     <polygon class="fil4" points="4878,9629 5173,9629 5173,8285 4878,8285 "/>
     <polygon class="fil5" points="5984,8285 5739,8285 5739,8898 5568,8285 5232,8285 5232,9629 5477,9629 5477,8913 5681,9629 5984,9629 "/>
     <path class="fil5" d="M6338 9456l0 -997c57,0 85,22 85,71l0 856c0,48 -28,70 -85,70zm76 173c86,0 159,-23 217,-69 59,-48 88,-113 88,-196l0 -813c0,-91 -31,-156 -94,-200 -62,-44 -134,-66 -214,-66l-367 0 0 1344 370 0 0 0z"/>
     <polygon class="fil4" points="6776,9629 7072,9629 7072,8285 6776,8285 "/>
     <path class="fil5" d="M7478 9082l42 -401 42 401 -84 0 0 0zm229 -797l-376 0 -221 1344 294 0 50 -360 131 0 49 360 293 0 -220 -1344 0 0z"/>
     <polygon class="fil6" points="2191,10033 2306,10033 2306,10004 2225,10004 2225,9938 2299,9938 2299,9911 2225,9911 2225,9853 2304,9853 2304,9824 2191,9824 "/>
     <polygon class="fil6" points="2465,10033 2496,10033 2496,9874 2497,9874 2557,10033 2598,10033 2598,9824 2566,9824 2566,9979 2565,9979 2506,9824 2465,9824 "/>
     <path class="fil6" d="M2868 10033l25 0 0 -110 -66 0 0 25 35 0c0,46 -9,65 -34,63 -23,0 -34,-16 -34,-83 0,-67 13,-83 36,-83 23,0 29,19 29,35l0 4 31 0 0 -3c0,-19 -9,-60 -60,-60 -48,0 -69,34 -69,108 0,71 14,104 56,108l11 0c21,-1 31,-11 39,-29l1 0 0 25 0 0 0 0z"/>
     <polygon class="fil7" points="3054,10033 3087,10033 3087,9824 3054,9824 "/>
     <polygon class="fil6" points="3253,10033 3284,10033 3284,9874 3285,9874 3346,10033 3386,10033 3386,9824 3354,9824 3354,9979 3354,9979 3294,9824 3253,9824 "/>
     <polygon class="fil6" points="3554,10033 3668,10033 3668,10004 3586,10004 3586,9938 3660,9938 3660,9911 3586,9911 3586,9853 3666,9853 3666,9824 3554,9824 "/>
     <polygon class="fil6" points="3828,10033 3941,10033 3941,10004 3860,10004 3860,9938 3934,9938 3934,9911 3860,9911 3860,9853 3939,9853 3939,9824 3828,9824 "/>
     <path class="fil6" d="M4134 9917l0 -67 27 0c23,0 32,11 32,34 0,21 -11,33 -33,33l-26 0 0 0zm-34 115l34 0 0 -89 27 0c22,0 29,10 29,32 1,16 0,27 2,40 1,7 2,14 5,17l38 0c-4,-2 -8,-8 -9,-17 -1,-13 -1,-30 -2,-42 0,-29 -12,-41 -33,-43l0 -1c23,-3 36,-24 36,-51 0,-39 -24,-54 -54,-54l-73 0 0 208 0 0 0 0z"/>
     <polygon class="fil7" points="4389,10033 4421,10033 4421,9824 4389,9824 "/>
     <polygon class="fil6" points="4588,10033 4618,10033 4618,9874 4620,9874 4680,10033 4720,10033 4720,9824 4688,9824 4688,9979 4688,9979 4628,9824 4588,9824 "/>
     <path class="fil6" d="M4990 10033l26 0 0 -110 -66 0 0 25 34 0c0,46 -9,65 -34,63 -22,0 -34,-16 -34,-83 0,-67 13,-83 36,-83 23,0 30,19 30,35l0 4 30 0 0 -3c0,-19 -8,-60 -60,-60 -47,0 -68,34 -68,108 0,71 15,104 56,108l10 0c21,-1 32,-11 40,-29l0 0 0 25 0 0 0 0z"/>
     <polygon class="fil6" points="5404,10033 5438,10033 5438,9853 5486,9853 5486,9824 5355,9824 5355,9853 5404,9853 "/>
     <polygon class="fil6" points="5638,10033 5672,10033 5672,9936 5732,9936 5732,10033 5766,10033 5766,9824 5732,9824 5732,9908 5672,9908 5672,9824 5638,9824 "/>
     <polygon class="fil6" points="5934,10033 6048,10033 6048,10004 5966,10004 5966,9938 6042,9938 6042,9911 5966,9911 5966,9853 6046,9853 6046,9824 5934,9824 "/>
     <polygon class="fil6" points="6410,10033 6443,10033 6443,9938 6516,9938 6516,9911 6443,9911 6443,9853 6520,9853 6520,9824 6410,9824 "/>
     <path class="fil6" d="M6675 9824l0 147c0,46 22,63 58,66l12 0c36,-3 58,-20 58,-66l0 -147 -33 0 0 150c0,26 -12,37 -31,37 -19,0 -31,-11 -31,-37l0 -150 -33 0 0 0z"/>
     <polygon class="fil6" points="7002,10033 7035,10033 7035,9853 7083,9853 7083,9824 6952,9824 6952,9853 7002,9853 "/>
     <path class="fil6" d="M7233 9824l0 147c0,46 22,63 58,66l12 0c35,-3 57,-20 57,-66l0 -147 -33 0 0 150c0,26 -11,37 -31,37 -19,0 -30,-11 -30,-37l0 -150 -33 0 0 0 0 0z"/>
     <path class="fil6" d="M7559 9917l0 -67 28 0c22,0 31,11 31,34 0,21 -11,33 -33,33l-26 0 0 0zm-34 115l34 0 0 -89 27 0c22,0 29,10 29,32 1,16 1,27 2,40 1,7 2,14 5,17l38 0c-4,-2 -9,-8 -9,-17 -1,-13 -1,-30 -1,-42 -3,-29 -13,-41 -34,-43l0 -1c23,-3 35,-24 35,-51 0,-39 -23,-54 -53,-54l-73 0 0 208 0 0 0 0z"/>
     <polygon class="fil6" points="7815,10033 7930,10033 7930,10004 7848,10004 7848,9938 7922,9938 7922,9911 7848,9911 7848,9853 7927,9853 7927,9824 7815,9824 "/>
    </g>
   </g>
   <g id="_2015629854064">
    <rect class="fil1" x="1919" y="10758" width="6284" height="2309"/>
    <g id="_2153167359280">
     <path class="fil7" d="M7898 11372c21,21 32,48 32,81 0,33 -11,60 -32,81 -20,20 -46,29 -79,29 -34,0 -60,-9 -81,-29 -19,-21 -30,-48 -30,-81 0,-33 11,-60 30,-81 21,-20 47,-30 81,-30 33,0 59,10 79,30zm-11 149c16,-17 26,-40 26,-68 0,-29 -10,-50 -26,-67 -18,-18 -40,-25 -68,-25 -28,0 -50,7 -68,25 -16,17 -25,38 -25,67 0,28 9,51 25,68 18,16 40,26 68,26 28,0 50,-10 68,-26zm-45 -59c9,15 20,28 30,41l-1 2c-4,3 -12,4 -24,5l-2 -2c-8,-13 -17,-26 -24,-40l-20 0 0 2 1 38 -25 0 1 -35 -1 -83 48 0c12,0 22,4 29,9 7,7 11,15 11,26 0,16 -9,28 -23,37l0 0zm-20 -14c11,-4 17,-10 17,-20 0,-12 -8,-18 -22,-19l-15 1 -1 38 21 0 0 0 0 0z"/>
     <path class="fil8" d="M2580 12151l237 0 -136 331 -101 0 -389 0 0 -331 0 -809 389 0 0 809 0 0zm3205 331l388 0 0 -1140 -388 0 0 1140zm-2573 -785l0 -26 0 -53c0,-175 -103,-276 -233,-276l-124 0 -268 355 237 0 0 454 0 331 388 0 101 0 136 -331 -237 0 0 -454 0 0zm637 0l0 -26 0 -53c0,-175 -103,-276 -231,-276l-126 0 -267 355 237 0 0 454 0 331 387 0 102 0 137 -331 -239 0 0 -454 0 0 0 0zm660 -24l275 0 0 -331 -308 0c-191,0 -356,150 -356,313 0,7 2,11 2,16l-2 0 0 498c0,163 165,313 356,313l330 0 136 -331 -433 0 0 -478 0 0 0 0zm824 0l275 0 0 -331 -307 0c-191,0 -355,150 -355,313 0,7 0,11 1,16l-1 0 0 498c0,163 164,313 355,313l329 0 136 -331 -433 0 0 -478 0 0 0 0z"/>
     <path class="fil9" d="M7499 12151l0 -809 -271 0 -118 0 -484 0c-191,0 -356,150 -356,313 0,7 2,11 2,16l-2 0 0 498c0,163 165,313 356,313l330 0 137 -331 -434 0 0 -478 451 0 0 809 148 0 241 0 82 0 136 -331 -218 0 0 0 0 0z"/>
    </g>
   </g>
   <g id="_2015626999552">
    <g id="_2089912530496">
     <polygon class="fil10" points="2289,7303 2143,7158 2194,6933 2659,6933 "/>
     <polygon class="fil11" points="2538,7554 2289,7303 2927,6666 2976,6715 2703,7464 "/>
     <polygon class="fil10" points="3637,7329 3413,7278 3413,6813 3673,7073 3783,7183 "/>
     <polygon class="fil11" points="3783,7183 3673,7073 3413,6813 3144,6545 3193,6496 3944,6769 4032,6934 "/>
     <polygon class="fil10" points="3292,6060 3305,6046 3662,5689 3808,5835 3756,6060 "/>
     <polygon class="fil11" points="3024,6327 2975,6278 3248,5528 3413,5439 3662,5689 3662,5689 3305,6046 "/>
     <polygon class="fil10" points="2538,6180 2168,5809 2314,5663 2538,5714 "/>
     <polygon class="fil11" points="2758,6496 2007,6224 1919,6059 2168,5809 2807,6447 "/>
     <polygon class="fil10" points="2285,6595 1919,6595 1919,6449 2056,6364 "/>
     <polygon class="fil11" points="2044,6877 1919,6840 1919,6595 2538,6595 2538,6647 "/>
     <polygon class="fil10" points="3073,7553 2928,7553 2842,7417 3073,7186 "/>
     <polygon class="fil11" points="3318,7553 3073,7553 3073,6934 3125,6934 3355,7427 "/>
     <polygon class="fil10" points="3895,6628 3666,6398 4032,6398 4032,6542 "/>
     <polygon class="fil11" points="4032,6398 3413,6398 3413,6346 3907,6115 4032,6153 "/>
     <polygon class="fil10" points="2878,5806 2878,5439 3022,5439 3108,5576 "/>
     <polygon class="fil11" points="2878,6059 2825,6059 2595,5565 2632,5439 2878,5439 "/>
     <polygon class="fil12" points="4546,6399 4688,6399 4688,5689 4546,5689 "/>
     <path class="fil12" d="M5409 6399l-156 0 -56 -158 -260 0 -55 158 -153 0 272 -710 138 0 270 710 0 0 0 0zm-342 -533c-8,27 -21,69 -36,111l-46 130 163 0 -46 -130c-13,-42 -28,-84 -35,-111l0 0z"/>
     <path class="fil12" d="M5663 6399l-212 0 0 -710 223 0c202,0 353,96 353,355 0,250 -181,355 -364,355l0 0zm-70 -572l0 434 70 0c150,0 218,-86 218,-217 0,-144 -62,-217 -212,-217l-76 0 0 0z"/>
     <path class="fil12" d="M6379 6411c-186,0 -310,-142 -310,-367 0,-216 129,-366 315,-366 134,0 214,65 259,157l-131 61c-25,-49 -66,-77 -130,-77 -106,0 -167,93 -167,225 0,128 62,226 168,226 64,0 102,-28 139,-90l0 0 0 0 0 -1 0 1 128 46c-3,11 -9,25 -9,25 -49,99 -133,160 -262,160l0 0z"/>
     <path class="fil13" d="M4856 7262l-170 -399c-17,-41 -37,-91 -46,-112 1,21 3,83 3,126l0 374 -101 0 0 -709 110 0 159 377c16,41 39,92 49,122 9,-30 30,-80 47,-122l156 -377 113 0 0 709 -104 0 0 -374c0,-43 1,-105 2,-126 -8,21 -28,71 -46,112l-172 399 0 0z"/>
     <polygon class="fil13" points="5734,7251 5263,7251 5263,6542 5720,6542 5720,6645 5370,6645 5370,6820 5572,6820 5572,6924 5370,6924 5370,7147 5734,7147 "/>
     <path class="fil13" d="M6122 7262l-170 -399c-17,-41 -37,-91 -45,-112 1,21 2,83 2,126l0 374 -100 0 0 -709 109 0 159 377c17,41 39,92 48,122 11,-30 30,-80 48,-122l156 -377 113 0 0 709 -104 0 0 -374c0,-43 1,-105 2,-126 -8,21 -29,71 -46,112l-172 399 0 0z"/>
     <path class="fil13" d="M6811 7251l-282 0 0 -709 292 0c123,0 204,65 204,184 0,72 -39,117 -90,142 55,15 119,67 119,165 0,143 -89,218 -243,218l0 0 0 0zm-181 -333l0 236 189 0c94,0 128,-49 128,-118 0,-73 -46,-118 -125,-118l-192 0 0 0zm0 -279l0 183 190 0c70,0 98,-43 98,-90 0,-53 -27,-93 -98,-93l-190 0z"/>
     <polygon class="fil13" points="7590,7251 7119,7251 7119,6542 7575,6542 7575,6645 7225,6645 7225,6820 7428,6820 7428,6924 7225,6924 7225,7147 7590,7147 "/>
     <path class="fil13" d="M8191 7251l-121 0 -141 -281 -160 0 0 281 -105 0 0 -709 310 0c125,0 228,66 228,211 0,114 -59,184 -155,208l144 290 0 0 0 0zm-422 -608l0 227 205 0c72,0 122,-36 122,-114 0,-73 -49,-113 -122,-113l-205 0 0 0z"/>
    </g>
   </g>
   <g id="_2015630515216">
    <g id="_2028443372096">
     <g>
      <path class="fil14 str0" d="M2400 1435c8,-86 29,-167 64,-246 185,-36 376,-34 571,3 24,80 37,159 34,241 102,28 195,69 284,119 65,-58 137,-103 224,-127 141,102 268,228 378,384 -31,84 -76,154 -127,218 40,83 77,166 105,255 85,11 167,30 247,74 32,178 34,361 -1,547 -80,25 -165,36 -245,41 -29,97 -60,184 -104,262 61,71 102,140 129,219 -108,154 -238,297 -397,405 -73,-27 -146,-75 -221,-135 -81,46 -172,83 -266,116 -1,80 -19,160 -53,241 -181,36 -363,38 -544,4 -36,-79 -54,-161 -61,-242 -94,-21 -182,-61 -270,-109 -77,68 -152,108 -225,129 -145,-90 -273,-217 -386,-375 31,-84 71,-157 124,-222 -53,-89 -92,-182 -125,-278 -79,13 -160,2 -240,-31 -37,-185 -39,-370 -7,-557 79,-31 158,-53 239,-58 30,-102 70,-200 122,-290 -58,-53 -102,-124 -134,-212 114,-163 242,-293 398,-397 76,35 148,77 211,133 91,-51 183,-89 276,-112l0 0zm334 211c542,0 983,437 983,975 0,539 -441,976 -983,976 -543,0 -983,-437 -983,-976 0,-538 440,-975 983,-975z"/>
      <path class="fil15" d="M2400 1435c8,-86 29,-167 64,-246 185,-36 376,-34 571,3 24,80 37,159 34,241 102,28 195,69 284,119 65,-58 137,-103 224,-127 141,102 268,228 378,384 -31,84 -76,154 -127,218 40,83 77,166 105,255 85,11 167,30 247,74 32,178 34,361 -1,547 -80,25 -165,36 -245,41 -29,97 -60,184 -104,262 61,71 102,140 129,219 -108,154 -238,297 -397,405 -73,-27 -146,-75 -221,-135 -81,46 -172,83 -266,116 -1,80 -19,160 -53,241 -181,36 -363,38 -544,4 -36,-79 -54,-161 -61,-242 -94,-21 -182,-61 -270,-109 -77,68 -152,108 -225,129 -145,-90 -273,-217 -386,-375 31,-84 71,-157 124,-222 -53,-89 -92,-182 -125,-278 -79,13 -160,2 -240,-31 -37,-185 -39,-370 -7,-557 79,-31 158,-53 239,-58 30,-102 70,-200 122,-290 -58,-53 -102,-124 -134,-212 114,-163 242,-293 398,-397 76,35 148,77 211,133 91,-51 183,-89 276,-112l0 0zm334 211c542,0 983,437 983,975 0,539 -441,976 -983,976 -543,0 -983,-437 -983,-976 0,-538 440,-975 983,-975z"/>
      <path class="fil16" d="M1522 3632l35 38 -25 51 65 68 52 -22 33 36 -234 93 -33 -36 107 -228 0 0zm-9 126l-42 83 86 -35 -44 -48 0 0 0 0zm-11 -148l-191 133 -28 -39 159 -110 -68 -96 33 -23 95 135 0 0 0 0zm-116 -168l-205 113 -23 -42 169 -92 -56 -103 34 -19 81 143 0 0 0 0zm-134 -259l-220 83 -17 -43 219 -84 18 44 0 0zm-39 -88l-228 52 -11 -44 132 -128 -154 34 -9 -41 229 -54 11 47 -128 126 149 -35 9 43 0 0zm-289 -215l-6 -86c-1,-20 0,-34 2,-45 2,-13 8,-26 19,-36 9,-11 22,-19 36,-25 15,-7 33,-11 56,-12 18,-1 35,0 50,4 16,4 31,12 43,22 8,7 15,18 20,32 5,10 8,24 9,41l6 88 -235 17 0 0 0 0zm37 -50l155 -11 -3 -35c-1,-13 -2,-22 -4,-29 -2,-7 -5,-13 -12,-17 -4,-6 -12,-9 -23,-11 -10,-3 -25,-4 -43,-2 -18,1 -32,4 -41,7 -10,5 -17,10 -22,16 -5,5 -9,13 -10,22 -1,7 -1,20 1,39l2 21zm184 -203l-235 -8 1 -47 235 7 -1 48 0 0zm28 -305l-7 51 -56 13 -13 93 51 26 -8 49 -220 -122 7 -50 246 -60zm-105 73l-90 20 82 44 8 -64zm117 -190l-222 -75 32 -94c8,-23 16,-40 24,-50 7,-9 18,-15 30,-18 13,-3 25,-2 38,3 17,5 29,14 37,28 7,14 9,30 5,51 9,-8 19,-14 27,-18 9,-4 24,-8 45,-13l53 -13 -19 55 -59 15c-22,6 -35,10 -41,12 -6,3 -10,6 -15,10 -3,4 -6,12 -10,22l-2 10 92 31 -15 44 0 0 0 0zm-113 -88l11 -33c8,-21 11,-35 11,-41 0,-5 -1,-12 -5,-16 -3,-4 -8,-8 -15,-10 -7,-2 -14,-2 -20,0 -6,2 -11,7 -15,14 -1,2 -5,14 -12,32l-11 35 56 19 0 0 0 0zm-12 -244l22 -42 113 59c17,10 29,16 35,17 9,3 18,2 27,-2 10,-3 16,-12 22,-23 6,-11 10,-22 7,-30 -1,-9 -5,-16 -11,-21 -6,-4 -19,-12 -34,-20l-115 -62 22 -40 108 57c25,13 43,23 52,31 9,8 15,17 19,26 4,10 5,21 4,33 -2,12 -6,27 -14,44 -12,20 -21,33 -32,41 -10,7 -20,12 -31,14 -10,2 -20,2 -29,0 -13,-3 -32,-11 -54,-24l-111 -58 0 0 0 0zm132 -238l56 -76c10,-14 19,-26 26,-32 6,-7 14,-11 22,-14 8,-3 17,-4 27,-3 9,1 18,4 26,10 10,7 16,15 20,26 3,10 4,20 2,31 12,-9 24,-15 37,-15 12,0 24,4 35,12 9,6 16,14 21,24 5,10 7,21 7,31 0,11 -3,21 -9,32 -4,7 -15,22 -32,47l-47 64 -191 -137 0 0 0 0zm60 -15l44 31 19 -25c10,-15 16,-24 19,-28 4,-6 6,-14 4,-20 0,-7 -4,-12 -11,-17 -6,-4 -11,-6 -18,-5 -6,0 -11,4 -17,9 -2,4 -11,14 -24,33l-16 22 0 0zm75 54l51 37 27 -36c10,-13 15,-23 17,-27 3,-6 5,-13 3,-19 -2,-6 -6,-12 -12,-17 -6,-4 -13,-6 -18,-6 -6,0 -11,1 -18,5 -5,5 -14,15 -27,33l-23 30 0 0 0 0zm31 -254l65 -68c13,-13 23,-22 31,-28 7,-5 15,-8 24,-10 8,-2 16,-2 27,0 8,2 17,7 24,14 8,8 13,17 16,27 2,11 2,21 -3,32 14,-8 27,-11 39,-9 13,1 24,7 34,16 7,7 13,16 17,26 3,12 5,22 3,32 -2,10 -6,20 -13,31 -6,6 -19,20 -40,42l-55 56 -169 -161 0 0 0 0zm61 -7l39 36 22 -20c12,-14 21,-23 23,-27 5,-6 7,-12 7,-19 0,-7 -3,-12 -8,-17 -5,-5 -11,-9 -17,-9 -6,0 -13,3 -18,8 -4,3 -13,12 -29,28l-19 20 0 0 0 0zm67 64l46 43 29 -31c13,-12 20,-21 22,-24 4,-6 7,-12 5,-19 0,-7 -3,-13 -9,-19 -5,-5 -10,-7 -17,-8 -5,-1 -11,0 -17,3 -7,2 -17,13 -32,27l-27 28 0 0 0 0zm214 -62l-145 -185 138 -107 24 32 -99 77 31 42 93 -73 25 31 -94 73 40 49 104 -80 24 31 -141 110 0 0 0 0zm179 -134l-107 -208 90 -45c22,-11 39,-17 51,-18 12,-1 23,1 34,7 11,6 21,16 27,28 7,16 9,30 5,46 -3,15 -14,28 -31,40 11,1 22,3 31,6 10,3 23,10 42,22l47 27 -51 25 -53 -29c-20,-11 -33,-17 -39,-19 -6,-2 -12,-3 -17,-3 -5,1 -12,4 -23,9l-8 5 45 86 -43 21 0 0 0 0zm-20 -141l31 -17c21,-9 34,-16 38,-20 4,-5 6,-10 6,-15 1,-6 0,-13 -3,-19 -3,-6 -8,-10 -14,-13 -6,-3 -13,-3 -20,0 -4,1 -15,6 -32,14l-33 17 27 53 0 0zm319 2l-73 -222 45 -15 73 223 -45 14zm90 -31l-54 -228 46 -10 129 130 -35 -151 42 -11 53 228 -46 11 -127 -128 34 148 -42 11 0 0 0 0zm217 -282l87 -5c20,-1 34,-1 45,1 13,3 26,9 36,18 11,11 19,22 25,37 7,15 11,32 13,54 1,20 0,37 -4,50 -5,18 -13,32 -23,43 -8,9 -18,16 -32,21 -10,4 -24,6 -42,9l-88 6 -17 -234 0 0 0 0zm50 36l12 155 35 -3c13,0 22,-2 28,-4 8,-2 14,-7 18,-11 5,-5 8,-12 12,-23 2,-11 3,-25 1,-44 -1,-17 -4,-31 -8,-40 -3,-10 -9,-17 -14,-22 -7,-4 -14,-9 -23,-10 -8,-1 -20,-1 -39,1l-22 1 0 0 0 0zm223 -49l48 3 -9 127c-2,20 -2,33 -2,38 2,10 7,18 14,24 7,7 18,11 30,12 14,1 24,-1 31,-6 8,-6 12,-12 14,-20 2,-7 3,-21 5,-39l9 -128 48 2 -9 123c-2,27 -5,47 -8,59 -4,11 -9,20 -17,28 -7,7 -16,13 -29,18 -11,3 -27,4 -45,3 -23,-1 -40,-6 -51,-12 -11,-5 -19,-12 -25,-21 -6,-9 -11,-19 -13,-27 -2,-13 -2,-33 0,-59l9 -125 0 0 0 0zm229 177l46 5c-1,17 3,28 9,38 7,8 17,14 31,17 15,4 27,4 36,-1 9,-5 14,-11 16,-19 3,-6 1,-11 -1,-15 -3,-5 -7,-9 -14,-14 -5,-3 -17,-9 -35,-18 -24,-12 -39,-23 -47,-35 -11,-16 -14,-32 -10,-50 2,-12 8,-22 18,-30 8,-9 19,-15 33,-17 14,-2 29,-2 47,2 28,6 49,18 61,33 11,17 15,36 11,57l-47 -10c1,-11 -1,-20 -7,-28 -5,-6 -15,-10 -27,-14 -14,-3 -25,-3 -34,2 -6,2 -9,6 -10,12 -2,4 0,11 3,15 5,6 18,14 39,25 21,10 37,20 47,27 9,8 15,19 19,29 5,12 5,24 0,39 -2,14 -8,24 -18,34 -11,10 -23,16 -38,18 -15,3 -31,1 -51,-3 -30,-6 -49,-19 -62,-35 -12,-17 -18,-38 -15,-64l0 0 0 0zm260 147l69 -181 -65 -25 14 -36 175 66 -15 36 -64 -24 -70 181 -44 -17 0 0 0 0zm142 57l115 -205 87 48c21,12 37,23 44,32 9,10 13,20 14,33 1,12 -3,25 -10,37 -8,15 -19,25 -34,31 -15,5 -32,3 -51,-4 6,10 10,19 12,30 2,8 5,24 6,46l3 53 -50 -27 -6 -62c-2,-21 -3,-35 -5,-42 -2,-6 -4,-10 -7,-14 -4,-4 -11,-9 -20,-15l-8 -4 -48 86 -42 -23 0 0 0 0zm107 -96l32 17c20,12 32,17 38,18 7,1 11,0 17,-2 4,-2 8,-6 13,-13 4,-7 4,-13 4,-20 -2,-6 -6,-11 -12,-16 -3,-3 -13,-9 -30,-18l-32 -18 -30 52 0 0zm97 214l136 -192 39 28 -135 191 -39 -27 -1 0zm79 55l151 -180 134 112 -26 30 -97 -81 -34 40 90 75 -25 30 -90 -75 -41 49 100 84 -25 30 -137 -114 0 0zm220 84l34 31c-11,12 -15,24 -15,35 0,11 4,22 15,33 10,11 20,18 29,20 10,2 19,0 25,-7 4,-3 6,-8 7,-12 1,-5 0,-12 -3,-20 -2,-5 -8,-17 -16,-34 -13,-24 -19,-42 -18,-57 0,-19 7,-34 21,-46 9,-8 20,-12 32,-14 13,-3 25,0 38,6 12,6 24,15 35,29 20,23 29,43 29,63 0,20 -7,36 -23,51l-33 -35c8,-8 13,-17 12,-26 0,-8 -6,-17 -14,-28 -9,-10 -19,-17 -27,-19 -6,-1 -13,0 -17,5 -4,4 -6,8 -6,14 0,9 6,22 17,43 11,21 18,38 20,49 4,13 4,24 -1,36 -3,11 -10,22 -22,31 -10,8 -21,15 -35,17 -15,2 -27,0 -41,-8 -13,-6 -27,-17 -41,-32 -18,-23 -29,-44 -29,-65 0,-21 10,-42 27,-60l0 0zm243 484l-26 -45 35 -43 -47 -81 -56 11 -25 -44 250 -38 24 43 -155 197 0 0 0 0zm36 -121l60 -71 -92 16 32 55zm39 107l22 41c-14,8 -22,17 -26,28 -3,10 -2,22 3,35 6,14 13,24 22,28 9,5 18,7 25,3 5,-3 9,-6 11,-10 3,-4 5,-11 4,-20 0,-6 -3,-19 -6,-38 -3,-26 -2,-45 2,-58 7,-19 19,-31 36,-37 11,-5 23,-7 35,-4 13,3 23,9 34,18 9,11 18,23 24,40 11,27 13,50 7,69 -6,18 -20,31 -39,41l-19 -43c10,-7 16,-15 19,-22 2,-9 1,-19 -5,-30 -5,-13 -11,-22 -20,-28 -5,-3 -10,-4 -15,-2 -6,2 -10,7 -12,13 -2,7 -1,23 2,46 4,23 6,41 4,53 -1,13 -6,24 -13,32 -6,11 -17,18 -31,23 -13,6 -25,7 -39,5 -14,-4 -26,-10 -37,-20 -10,-11 -18,-25 -27,-44 -10,-27 -12,-51 -6,-71 6,-20 22,-36 45,-48l0 0 0 0zm84 216l14 43c-14,6 -24,15 -29,24 -4,10 -5,23 -2,36 4,15 10,26 19,31 7,6 15,8 24,6 5,-1 9,-4 12,-8 3,-4 5,-11 6,-19 0,-6 2,-19 2,-40 0,-25 2,-44 9,-56 8,-17 22,-27 41,-33 11,-3 23,-2 34,2 12,4 22,12 30,22 9,12 15,25 19,43 8,28 7,51 -3,69 -8,18 -23,29 -44,35l-13 -45c11,-4 18,-12 22,-19 4,-7 4,-18 0,-30 -4,-14 -9,-23 -16,-30 -5,-4 -9,-5 -16,-4 -6,2 -9,5 -11,11 -4,6 -5,22 -5,46 0,23 -3,41 -5,53 -3,11 -8,22 -16,30 -9,9 -20,15 -35,19 -12,3 -26,2 -40,-2 -12,-4 -24,-13 -32,-24 -9,-12 -16,-28 -21,-47 -7,-29 -6,-52 3,-71 11,-19 27,-34 52,-42l1 0 0 0zm93 226c25,-2 44,0 61,5 13,5 24,11 35,20 10,8 17,17 23,27 8,15 12,31 14,50 2,34 -6,63 -25,85 -20,22 -49,35 -88,38 -36,4 -67,-4 -90,-23 -23,-18 -36,-45 -39,-79 -3,-34 5,-63 24,-85 20,-22 48,-35 85,-38l0 0 0 0zm7 48c-27,2 -47,10 -60,24 -12,13 -17,29 -15,48 1,19 9,33 24,44 14,11 35,15 62,13 26,-3 46,-10 59,-23 12,-12 18,-29 16,-48 -3,-20 -10,-35 -25,-46 -14,-10 -34,-14 -61,-12l0 0 0 0zm-30 381l-19 45c-24,-9 -43,-22 -54,-40 -11,-16 -16,-37 -14,-62 2,-32 14,-57 36,-74 23,-18 53,-27 90,-25 39,4 69,15 89,37 20,22 29,49 26,82 -2,28 -11,51 -29,67 -12,10 -26,17 -46,21l-7 -48c12,-2 22,-6 30,-14 7,-9 11,-19 12,-32 2,-17 -4,-31 -15,-44 -12,-11 -33,-18 -60,-19 -29,-2 -51,1 -63,11 -15,9 -21,23 -23,40 0,12 3,23 10,33 7,10 19,17 37,22l0 0zm-98 82l231 40 -8 46 -231 -40 8 -46zm-75 298l14 -49 57 -6 24 -90 -47 -33 14 -48 202 148 -12 48 -252 30zm113 -59l93 -9 -76 -54 -17 63zm-140 109l179 78 28 -64 36 17 -76 169 -35 -15 28 -64 -179 -79 19 -42 0 0zm-62 135l206 113 -23 41 -206 -113 23 -41zm55 139c20,14 34,29 43,43 7,12 12,24 14,37 2,13 2,25 0,36 -4,16 -10,32 -22,47 -20,29 -45,45 -74,49 -29,5 -60,-4 -91,-25 -31,-22 -50,-48 -55,-76 -7,-29 1,-57 21,-86 19,-28 45,-44 74,-49 29,-5 59,3 90,24l0 0zm-26 41c-23,-15 -42,-21 -61,-19 -19,2 -33,11 -44,26 -10,16 -15,33 -10,50 4,17 17,34 39,50 23,14 43,22 61,20 17,-3 31,-12 43,-28 11,-15 14,-32 10,-50 -4,-16 -17,-33 -38,-49l0 0 0 0zm-230 109l172 159 -31 33 -181 -37 115 107 -30 32 -173 -158 34 -36 176 36 -112 -105 30 -31 0 0z"/>
      <path class="fil16" d="M2513 4417l-45 -7 23 -166c-18,13 -38,21 -61,25l5 -39c11,-3 26,-9 41,-17 14,-8 26,-20 33,-33l35 5 -31 232 0 0zm69 -45l44 -3c1,8 4,14 8,19 5,5 11,7 17,7 11,1 18,-3 25,-12 6,-8 12,-26 14,-52 -12,13 -26,19 -43,18 -19,0 -35,-9 -47,-23 -14,-15 -20,-33 -19,-56 1,-24 9,-42 24,-56 15,-14 32,-21 54,-20 24,0 43,11 58,29 16,19 22,50 20,91 -1,42 -11,74 -27,92 -17,18 -38,26 -63,25 -19,0 -34,-5 -44,-15 -12,-10 -18,-24 -21,-44l0 0zm106 -94c1,-15 -2,-26 -10,-34 -6,-8 -13,-12 -22,-13 -8,0 -15,3 -22,9 -5,6 -8,17 -8,32 -1,15 2,27 7,33 6,8 14,11 22,11 9,0 17,-3 23,-9 6,-6 10,-17 10,-29l0 0zm159 148l-4 -47 -95 8 -3 -38 88 -157 37 -3 14 147 28 -2 4 39 -29 3 4 46 -44 4 0 0 0 0zm-7 -87l-7 -78 -46 84 53 -6 0 0 0 0zm95 24l43 -13c3,10 8,17 16,22 7,4 14,5 23,4 9,-1 16,-7 21,-15 5,-9 6,-22 3,-36 -3,-14 -8,-24 -16,-29 -8,-7 -17,-9 -27,-7 -13,3 -23,11 -30,24l-37 2 -2 -124 117 -22 8 40 -83 17 1 40c9,-7 19,-11 29,-13 20,-4 38,0 53,11 17,12 28,28 32,51 4,19 2,37 -7,54 -10,23 -29,37 -56,43 -21,4 -40,1 -55,-8 -16,-8 -26,-22 -33,-41l0 0z"/>
      <path class="fil15" d="M1947 4062c52,0 94,38 94,86 0,48 -42,87 -94,87 -52,0 -94,-39 -94,-87 0,-48 42,-86 94,-86z"/>
      <path class="fil15" d="M3522 4075c53,0 94,39 94,87 0,47 -41,87 -94,87 -52,0 -94,-40 -94,-87 0,-48 42,-87 94,-87z"/>
      <path class="fil16" d="M2121 2777l-148 0 -20 78 -133 0 158 -467 142 0 158 467 -137 0 -20 -78 0 0zm-27 -101l-47 -168 -46 168 93 0zm231 -288l130 0 0 467 -130 0 0 -467zm225 467l0 -467 216 0c40,0 71,3 92,11 21,7 39,22 51,42 14,21 20,46 20,76 0,26 -5,48 -15,67 -10,19 -24,35 -41,46 -11,7 -27,14 -45,18 15,6 26,11 33,18 5,3 12,11 21,24 9,12 16,23 18,29l62 136 -146 0 -69 -143c-9,-19 -17,-31 -24,-37 -9,-6 -20,-10 -32,-10l-11 0 0 190 -130 0 0 0 0 0zm130 -278l55 0c6,0 17,-2 34,-6 8,-3 16,-8 21,-15 5,-8 8,-17 8,-27 0,-15 -4,-27 -13,-36 -9,-7 -24,-11 -48,-11l-57 0 0 95 0 0 0 0zm329 -189l131 0 0 467 -131 0 0 -467zm482 389l-147 0 -20 78 -134 0 159 -467 141 0 158 467 -136 0 -21 -78 0 0zm-27 -101l-46 -168 -46 168 92 0 0 0z"/>
     </g>
     <rect class="fil14" x="543" y="452" width="4345" height="4345"/>
    </g>
    <g id="_2028443373248">
     <rect class="fil1" x="5233" y="452" width="4345" height="4345"/>
     <path class="fil17" d="M7309 3792l77 171c78,-32 35,-170 154,-172 78,0 104,112 136,176 15,35 113,216 -3,183 -52,-14 -74,-173 -125,-200 -53,56 -49,234 -138,236 -100,2 -89,-181 -144,-238 -49,23 -57,112 -82,161 -32,58 -135,64 -83,-51 38,-81 90,-298 208,-266zm-870 45c-15,-54 65,-143 94,-184 27,-38 93,-144 121,-161 84,-25 267,141 270,228 4,104 -55,102 -116,130 -61,29 -21,144 -112,139 -61,-86 22,-159 -67,-206 -111,-57 -65,89 -190,54l0 0 0 0zm1615 54c-2,20 46,232 -48,151 -16,-15 -67,-145 -82,-178 -77,-178 -118,-212 100,-284 311,-104 185,161 235,215 20,22 55,32 51,78 -4,54 -51,37 -81,21 -98,-52 -84,-78 -175,-3l0 0zm-1616 -539c44,-30 95,4 70,52l-249 216c-50,24 -94,0 -74,-58 7,-22 58,-56 80,-74 49,-40 118,-100 173,-136zm2146 343c-63,39 -113,-114 -140,-162 -30,-56 -109,-168 -70,-219 53,-71 172,-8 239,15 63,22 200,37 192,117 -102,46 -111,-45 -203,63 -86,102 37,123 -18,186l0 0zm-1430 -2185l410 2 4 84c315,57 518,213 718,359l622 457 -34 94c-88,-30 -320,-232 -393,-164l-2 146c-1,630 -442,1103 -1059,1104 -547,2 -1006,-446 -1009,-1002 0,-358 190,-663 458,-841 33,-22 283,-137 285,-142l0 -97 0 0zm-173 -144l749 1 -2 87 -747 0 0 -88 0 0 0 0zm160 -134l431 1 0 51 -433 -2 2 -50 0 0zm-54 282l0 51c-130,35 -270,127 -356,200 -62,52 -84,76 -136,137 -40,46 -81,123 -117,160l-517 -319c90,-200 360,-436 544,-554 520,-329 1189,-343 1728,-44 180,101 498,361 569,521l-407 277c-98,-48 -225,-170 -344,-240 -73,-43 -311,-160 -409,-162 -22,-14 -14,0 -15,-28 34,-18 124,-6 169,-9l2 -199 -154 0 -1 -138 -569 -4 -6 149 -158 0 2 194c32,-1 65,0 97,0 32,-1 55,-6 78,8l0 0 0 0zm173 -653c-535,61 -938,300 -1182,593 -261,315 -485,739 -438,1316 78,956 911,1707 1915,1624 919,-77 1708,-885 1617,-1920 -81,-903 -908,-1727 -1912,-1613l0 0 0 0z"/>
     <path class="fil17" d="M7185 794c1081,-143 1952,691 2057,1618 124,1101 -682,1935 -1621,2050 -1054,128 -1945,-659 -2052,-1622 -121,-1100 675,-1921 1616,-2046l0 0zm96 -81c-309,30 -504,81 -753,208 -401,205 -743,576 -909,1006 -503,1310 476,2686 1921,2614 983,-49 1860,-946 1781,-2040 -72,-999 -965,-1894 -2040,-1788l0 0 0 0z"/>
     <path class="fil17" d="M7746 3491c57,-80 -182,-249 -25,-352 37,-24 121,-71 95,-145 -20,-54 -135,-14 -198,-22 -55,-44 -26,-78 -111,-111 -43,-17 -129,-45 -177,-36 -22,72 -14,263 -30,364 -11,63 -77,292 -52,326 60,31 87,-37 134,-49 83,-22 61,55 115,78l6 7c16,-18 69,-68 71,-87l172 27 0 0 0 0z"/>
     <path class="fil17" d="M7520 1909c-69,-9 -59,45 -131,36 -49,-8 -71,-41 -132,-41 -18,43 52,306 62,384 9,63 8,159 19,214 17,77 84,67 106,126l-38 0c-19,-1 -39,1 -48,9 28,25 76,45 65,66 -16,27 -51,21 -65,37 13,21 120,60 149,73 23,-1 -4,-32 -35,-67 -4,-32 38,-8 40,-48 -2,-23 -26,-19 -34,-56 65,-90 33,-51 36,-172 3,-143 50,-497 6,-561l0 0 0 0z"/>
     <path class="fil1" d="M7309 3792c-118,-32 -170,185 -208,266 -52,115 51,109 83,51 25,-49 33,-138 82,-161 55,57 44,240 144,238 89,-2 85,-180 138,-236 51,27 73,186 125,200 116,33 18,-148 3,-183 -32,-64 -58,-176 -136,-176 -119,2 -76,140 -154,172l-77 -171z"/>
     <path class="fil1" d="M8130 3643c34,60 19,79 -31,114 -30,21 -74,66 -115,32 -44,-36 -21,-86 22,-109 34,-19 78,-51 124,-37l0 0zm-76 248c91,-75 77,-49 175,3 30,16 77,33 81,-21 4,-46 -31,-56 -51,-78 -50,-54 76,-319 -235,-215 -218,72 -177,106 -100,284 15,33 66,163 82,178 94,81 46,-131 48,-151l0 0z"/>
     <path class="fil1" d="M6668 3608c42,-22 86,20 122,41 74,45 56,166 -123,62 -49,-28 -40,-81 1,-103l0 0zm-229 229c125,35 79,-111 190,-54 89,47 6,120 67,206 91,5 51,-110 111,-139 61,-28 120,-26 117,-130 -3,-87 -186,-253 -270,-228 -28,17 -94,123 -121,161 -29,41 -109,130 -94,184l0 0 0 0z"/>
     <path class="fil1" d="M8572 3396c-9,29 -34,65 -59,77 -17,-33 -46,-62 -52,-107 41,3 74,17 111,30l0 0 0 0zm12 299c55,-63 -68,-84 18,-186 92,-108 101,-17 203,-63 8,-80 -129,-95 -192,-117 -67,-23 -186,-86 -239,-15 -39,51 40,163 70,219 27,48 77,201 140,162l0 0z"/>
     <polygon class="fil1" points="6981,1454 7728,1454 7730,1367 6981,1366 "/>
     <path class="fil1" d="M6438 3352c-55,36 -124,96 -173,136 -22,18 -73,52 -80,74 -20,58 24,82 74,58l249 -216c25,-48 -26,-82 -70,-52z"/>
     <polygon class="fil1" points="7139,1282 7572,1284 7572,1233 7141,1232 "/>
     <path class="fil17" d="M7685 2351c7,81 228,82 189,-19 -9,-25 -66,-60 -105,-66 -53,-7 -89,36 -84,85l0 0 0 0z"/>
     <path class="fil17" d="M7666 2056c-90,47 -11,171 103,132 125,-42 -19,-175 -103,-132z"/>
     <path class="fil17" d="M6850 2001c-55,31 -39,58 10,106 29,29 64,63 109,33 86,-54 -31,-188 -119,-139l0 0z"/>
     <path class="fil17" d="M8130 3643c-46,-14 -90,18 -124,37 -43,23 -66,73 -22,109 41,34 85,-11 115,-32 50,-35 65,-54 31,-114l0 0z"/>
     <path class="fil17" d="M6668 3608c-41,22 -50,75 -1,103 179,104 197,-17 123,-62 -36,-21 -80,-63 -122,-41l0 0z"/>
     <path class="fil17" d="M6983 1805c-41,74 59,181 117,151 87,-47 -4,-176 -117,-151z"/>
     <path class="fil17" d="M7965 2140c38,23 37,33 104,14 41,-12 63,-35 59,-85 -75,-52 -173,-70 -163,71l0 0z"/>
     <path class="fil17" d="M6934 2329c14,-143 -151,-95 -174,-64 -29,41 25,67 62,80 50,17 65,6 112,-16l0 0z"/>
     <path class="fil17" d="M7189 2282c56,-116 -69,-140 -112,-43 -44,101 60,150 112,43z"/>
     <path class="fil17" d="M7356 1636c-12,35 -35,73 -28,123 19,122 131,82 105,-37 -11,-53 -28,-78 -77,-86z"/>
     <path class="fil17" d="M8214 2357c28,-41 42,-79 -19,-98 -67,-20 -102,6 -100,69 50,35 48,41 119,29l0 0z"/>
     <path class="fil17" d="M7849 1854c-21,10 -20,-3 -32,31 -17,54 29,98 92,73 70,-28 15,-140 -60,-104l0 0z"/>
     <path class="fil17" d="M7696 1790c14,-24 14,-46 -3,-68 -52,-4 -102,18 -94,72 11,72 77,11 97,-4l0 0z"/>
     <path class="fil17" d="M8513 3473c25,-12 50,-48 59,-77 -37,-13 -70,-27 -111,-30 6,45 35,74 52,107l0 0 0 0z"/>
    </g>
   </g>
  </g>
 </g>
</svg>
