<?xml version="1.0" encoding="UTF-8"?>
<!DOCTYPE svg PUBLIC "-//W3C//DTD SVG 1.1//EN" "http://www.w3.org/Graphics/SVG/1.1/DTD/svg11.dtd">
<!-- Creator: CorelDRAW X8 -->
<svg xmlns="http://www.w3.org/2000/svg" xml:space="preserve" width="24.4959mm" height="24.4959mm" version="1.1" style="shape-rendering:geometricPrecision; text-rendering:geometricPrecision; image-rendering:optimizeQuality; fill-rule:evenodd; clip-rule:evenodd"
viewBox="0 0 3000 3000"
 xmlns:xlink="http://www.w3.org/1999/xlink">
 <defs>
  <style type="text/css">
   <![CDATA[
    .str0 {stroke:#FEFEFE;stroke-width:72.0302}
    .fil1 {fill:none;fill-rule:nonzero}
    .fil0 {fill:#FEFEFE}
    .fil2 {fill:#332C2B}
    .fil3 {fill:#332C2B;fill-rule:nonzero}
   ]]>
  </style>
 </defs>
 <g id="Layer_x0020_1">
  <metadata id="CorelCorpID_0Corel-Layer"/>
  <rect class="fil0" width="3000" height="3000"/>
  <g id="_2028865242448">
   <path class="fil1 str0" d="M1282 678c6,-58 20,-114 45,-169 128,-25 259,-23 394,2 17,55 26,110 24,166 70,20 135,48 196,82 44,-39 94,-70 154,-87 97,70 185,157 261,265 -21,58 -53,107 -88,151 28,57 54,115 73,176 58,7 116,21 170,51 22,123 24,249 -1,378 -54,17 -113,24 -168,28 -21,67 -42,127 -73,180 43,50 71,97 90,152 -75,106 -165,205 -274,279 -51,-18 -101,-51 -153,-92 -56,31 -118,57 -183,80 -1,55 -13,110 -37,166 -125,24 -250,26 -376,3 -24,-55 -37,-112 -42,-168 -64,-14 -126,-41 -186,-74 -54,46 -105,74 -156,88 -100,-62 -188,-149 -266,-258 21,-58 49,-109 85,-154 -36,-61 -63,-125 -86,-192 -55,9 -110,2 -165,-21 -26,-128 -27,-256 -6,-385 55,-21 110,-36 165,-39 22,-71 49,-138 84,-201 -39,-37 -70,-86 -91,-147 78,-113 167,-202 275,-274 52,25 102,53 145,92 63,-35 127,-62 190,-78zm231 146c375,0 679,302 679,674 0,372 -304,673 -679,673 -375,0 -678,-301 -678,-673 0,-372 303,-674 678,-674z"/>
   <path class="fil2" d="M1282 678c6,-58 20,-114 45,-169 128,-25 259,-23 394,2 17,55 26,110 24,166 70,20 135,48 196,82 44,-39 94,-70 154,-87 97,70 185,157 261,265 -21,58 -53,107 -88,151 28,57 54,115 73,176 58,7 116,21 170,51 22,123 24,249 -1,378 -54,17 -113,24 -168,28 -21,67 -42,127 -73,180 43,50 71,97 90,152 -75,106 -165,205 -274,279 -51,-18 -101,-51 -153,-92 -56,31 -118,57 -183,80 -1,55 -13,110 -37,166 -125,24 -250,26 -376,3 -24,-55 -37,-112 -42,-168 -64,-14 -126,-41 -186,-74 -54,46 -105,74 -156,88 -100,-62 -188,-149 -266,-258 21,-58 49,-109 85,-154 -36,-61 -63,-125 -86,-192 -55,9 -110,2 -165,-21 -26,-128 -27,-256 -6,-385 55,-21 110,-36 165,-39 22,-71 49,-138 84,-201 -39,-37 -70,-86 -91,-147 78,-113 167,-202 275,-274 52,25 102,53 145,92 63,-35 127,-62 190,-78zm231 146c375,0 679,302 679,674 0,372 -304,673 -679,673 -375,0 -678,-301 -678,-673 0,-372 303,-674 678,-674z"/>
   <path class="fil3" d="M676 2196l25 26 -18 35 45 47 36 -15 23 25 -162 64 -23 -25 74 -157zm-6 87l-28 57 59 -24 -31 -33zm-8 -102l-132 92 -19 -27 110 -76 -47 -66 22 -16 66 93zm-80 -116l-141 78 -16 -29 117 -64 -40 -71 24 -13 56 99zm-93 -179l-151 57 -12 -30 152 -58 11 31zm-26 -61l-158 36 -7 -30 91 -89 -106 24 -7 -29 158 -36 8 31 -89 87 103 -23 7 29zm-200 -148l-4 -60c-1,-13 0,-23 1,-31 2,-9 7,-18 13,-25 7,-7 15,-13 25,-17 11,-4 23,-7 38,-8 14,-1 25,0 35,3 12,3 22,8 30,15 6,5 11,12 15,22 2,7 4,16 5,28l4 61 -162 12zm25 -35l108 -7 -2 -24c-1,-10 -2,-16 -3,-20 -2,-5 -4,-9 -8,-13 -3,-3 -8,-5 -16,-7 -7,-2 -17,-2 -30,-1 -12,1 -22,2 -28,5 -7,3 -12,6 -15,10 -4,5 -6,10 -7,16 -1,4 0,13 0,27l1 14zm128 -140l-162 -6 1 -32 162 5 -1 33zm19 -210l-5 35 -38 9 -9 63 34 19 -4 34 -152 -85 4 -34 170 -41zm-72 50l-63 14 57 30 6 -44zm80 -131l-153 -52 22 -65c6,-16 11,-28 17,-34 5,-7 12,-11 21,-13 8,-2 17,-1 26,2 12,4 20,10 25,20 5,9 7,20 4,35 6,-6 12,-10 18,-13 7,-2 17,-5 31,-9l37 -8 -13 37 -41 11c-15,3 -24,6 -28,8 -4,2 -7,4 -10,7 -2,3 -4,8 -7,15l-2 6 64 22 -11 31zm-78 -61l8 -23c5,-15 8,-24 8,-28 0,-4 -1,-8 -3,-11 -3,-3 -6,-5 -11,-7 -5,-2 -10,-2 -14,0 -4,2 -7,5 -10,9 -1,3 -4,10 -8,23l-9 24 39 13zm-8 -169l15 -28 78 41c12,6 21,10 25,11 6,2 12,2 18,-1 6,-3 12,-8 16,-16 4,-8 6,-16 5,-21 -1,-6 -4,-11 -9,-14 -4,-4 -12,-9 -23,-15l-80 -41 16 -29 75 40c17,9 29,16 35,21 7,5 11,11 14,18 2,7 3,15 2,23 0,9 -4,19 -10,30 -7,13 -14,23 -21,28 -7,6 -14,9 -21,10 -8,2 -14,2 -21,0 -9,-2 -22,-8 -38,-16l-76 -41zm92 -164l38 -52c7,-11 13,-18 18,-22 4,-5 10,-8 15,-10 6,-2 12,-3 19,-2 6,0 12,3 18,7 6,4 10,10 13,17 3,7 4,14 2,22 8,-7 17,-10 25,-10 9,0 17,2 25,8 6,4 11,10 14,17 4,6 6,13 5,21 0,7 -2,14 -6,22 -3,4 -10,15 -23,32l-32 45 -131 -95zm41 -11l30 22 13 -17c7,-10 12,-17 13,-20 3,-4 4,-9 3,-14 0,-4 -3,-8 -7,-11 -4,-3 -8,-4 -12,-4 -5,1 -9,3 -12,7 -3,2 -8,10 -17,22l-11 15zm52 38l35 25 18 -24c7,-10 11,-16 12,-19 2,-4 3,-9 2,-13 -1,-5 -4,-8 -8,-12 -4,-3 -8,-4 -13,-4 -4,0 -8,1 -12,4 -3,2 -10,10 -19,22l-15 21zm21 -176l45 -46c9,-9 16,-16 21,-20 5,-3 11,-6 17,-7 5,-1 12,-1 18,0 6,2 12,5 17,10 6,5 9,11 11,19 2,7 1,14 -1,22 9,-6 17,-8 26,-7 9,1 16,5 23,12 6,5 10,11 12,18 3,7 4,15 2,22 -1,7 -4,14 -9,21 -4,4 -13,14 -27,29l-38 39 -117 -112zm42 -5l27 26 15 -15c9,-9 14,-15 16,-17 3,-5 5,-9 5,-14 0,-4 -2,-8 -6,-12 -3,-4 -7,-5 -11,-6 -5,0 -9,2 -13,5 -3,2 -9,9 -20,20l-13 13zm46 45l32 30 21 -22c8,-8 13,-14 15,-17 2,-4 4,-8 3,-12 0,-5 -2,-9 -6,-13 -4,-4 -8,-6 -12,-6 -4,-1 -8,0 -12,2 -5,2 -12,8 -22,19l-19 19zm148 -43l-100 -127 95 -74 17 22 -69 53 22 28 65 -49 16 21 -64 50 27 34 72 -55 17 21 -98 76zm124 -92l-74 -144 62 -31c15,-8 27,-12 35,-13 9,-1 17,1 24,5 8,5 14,11 18,20 6,10 7,21 4,31 -3,10 -10,20 -22,28 9,0 16,2 22,4 7,2 16,7 29,15l32 19 -35 18 -37 -21c-13,-7 -22,-12 -26,-13 -5,-2 -9,-2 -12,-2 -4,1 -9,3 -16,6l-6 3 31 60 -29 15zm-14 -98l22 -11c14,-7 23,-12 25,-15 3,-3 5,-6 6,-10 0,-4 -1,-8 -3,-12 -3,-5 -6,-8 -10,-10 -4,-2 -9,-2 -14,0 -2,1 -10,4 -21,10l-23 12 18 36zm220 2l-50 -154 31 -10 50 153 -31 11zm62 -22l-36 -157 31 -7 89 90 -24 -105 29 -7 37 157 -32 8 -88 -88 24 102 -30 7zm150 -194l60 -4c14,-1 24,-1 31,1 10,2 18,6 26,13 7,6 13,15 17,25 4,10 7,22 8,37 1,14 0,25 -3,35 -3,12 -8,22 -15,29 -5,6 -13,11 -22,15 -7,3 -17,4 -29,5l-61 5 -12 -161zm35 25l7 106 25 -1c9,-1 16,-2 20,-3 5,-2 9,-5 12,-8 4,-3 6,-9 8,-16 1,-7 2,-17 1,-30 -1,-12 -3,-22 -5,-28 -3,-7 -6,-12 -11,-15 -4,-4 -9,-6 -15,-7 -5,0 -14,0 -27,1l-15 1zm154 -34l33 2 -7 87c-1,14 -1,23 0,27 1,7 4,12 9,17 5,4 12,7 21,7 9,1 16,-1 21,-4 5,-3 8,-8 10,-13 1,-6 2,-15 3,-28l6 -88 33 2 -6 84c-1,20 -3,33 -5,41 -3,8 -7,14 -12,19 -5,6 -11,10 -20,12 -8,3 -18,4 -31,3 -16,-1 -27,-4 -35,-8 -8,-4 -14,-9 -18,-15 -4,-6 -7,-12 -8,-18 -1,-10 -1,-23 0,-41l6 -86zm158 121l32 5c-1,10 1,19 6,25 5,6 12,10 21,13 11,2 19,2 25,-2 6,-3 10,-7 12,-13 0,-4 0,-7 -2,-10 -1,-3 -4,-6 -10,-10 -3,-2 -11,-6 -23,-12 -17,-8 -27,-16 -33,-24 -8,-11 -10,-23 -7,-35 2,-8 6,-15 12,-21 6,-6 14,-10 23,-11 10,-2 21,-1 33,1 20,5 34,13 42,24 8,11 10,23 7,38l-32 -6c1,-8 -1,-15 -5,-20 -3,-4 -10,-7 -19,-9 -9,-3 -17,-2 -23,0 -4,2 -6,5 -7,9 -1,4 0,7 2,10 4,5 13,10 27,18 15,7 26,13 32,19 7,5 11,12 14,20 3,8 3,16 0,26 -2,9 -6,17 -13,24 -7,7 -15,11 -25,12 -10,2 -22,1 -36,-2 -20,-4 -34,-12 -43,-24 -9,-12 -12,-26 -10,-45zm179 102l48 -125 -45 -17 10 -25 120 46 -9 25 -45 -17 -49 125 -30 -12zm98 39l79 -141 61 33c15,9 25,16 31,22 5,7 8,14 9,23 0,9 -2,17 -7,25 -6,11 -14,18 -24,22 -10,3 -22,2 -35,-3 4,7 7,14 9,20 1,7 3,18 3,32l2 37 -34 -19 -4 -42c-1,-15 -2,-24 -3,-29 -1,-4 -3,-8 -6,-10 -2,-3 -7,-6 -13,-10l-6 -3 -33 59 -29 -16zm75 -66l21 12c14,8 23,12 27,13 4,0 7,0 11,-2 3,-2 6,-5 9,-9 2,-5 3,-9 2,-14 -1,-4 -3,-8 -7,-11 -2,-2 -9,-6 -21,-12l-22 -12 -20 35zm67 148l93 -132 27 19 -93 132 -27 -19zm54 38l104 -124 92 77 -17 21 -67 -56 -24 27 63 52 -18 21 -62 -52 -29 34 70 58 -18 21 -94 -79zm152 58l23 22c-7,8 -10,16 -10,24 0,7 3,15 10,22 7,8 14,13 20,14 7,1 13,0 18,-4 2,-3 4,-6 5,-9 0,-4 -1,-8 -3,-14 -1,-3 -5,-11 -12,-24 -8,-16 -12,-29 -12,-38 0,-13 5,-24 15,-33 6,-5 14,-8 22,-9 9,-2 17,0 26,4 9,4 17,11 25,20 14,16 20,30 20,44 0,13 -5,25 -16,35l-23 -24c6,-6 8,-12 8,-18 0,-6 -3,-12 -9,-19 -7,-7 -13,-12 -20,-13 -4,-1 -7,0 -11,3 -3,2 -4,5 -4,10 0,5 4,15 12,29 7,15 12,26 14,34 2,9 2,17 -1,25 -2,7 -7,15 -15,21 -7,6 -15,10 -25,11 -9,2 -19,0 -28,-4 -9,-5 -18,-12 -27,-23 -14,-15 -21,-30 -21,-44 0,-15 6,-29 19,-42zm167 335l-18 -31 25 -30 -33 -56 -38 7 -18 -30 173 -27 17 30 -108 137zm25 -84l41 -49 -63 11 22 38zm27 73l15 29c-9,5 -15,12 -17,19 -3,7 -2,16 2,25 4,10 9,16 15,19 6,4 12,4 17,2 4,-2 7,-4 8,-7 2,-3 3,-7 2,-13 0,-4 -1,-13 -3,-27 -3,-18 -2,-31 1,-40 5,-13 13,-21 25,-26 7,-3 15,-4 24,-2 8,1 16,6 23,12 7,7 12,16 17,28 8,18 9,34 5,47 -5,13 -14,22 -27,28l-14 -29c7,-5 12,-10 13,-15 2,-6 1,-13 -2,-22 -4,-8 -9,-15 -14,-18 -4,-2 -8,-3 -11,-1 -4,1 -6,4 -8,8 -1,5 -1,16 1,32 3,16 4,28 3,37 -1,8 -4,16 -9,22 -5,7 -12,12 -21,16 -9,3 -18,4 -27,3 -10,-2 -18,-7 -25,-14 -8,-7 -14,-17 -19,-30 -8,-19 -9,-35 -5,-49 5,-14 15,-25 31,-34zm57 150l11 30c-10,4 -16,10 -20,16 -3,7 -4,16 -2,25 3,10 7,17 13,22 5,4 11,5 17,4 4,-1 7,-3 9,-6 2,-3 3,-7 4,-13 0,-4 0,-13 0,-27 0,-18 2,-31 7,-40 6,-11 15,-19 28,-22 8,-2 16,-1 24,1 8,3 15,8 21,16 6,8 10,17 13,29 5,20 5,36 -2,48 -6,12 -16,20 -30,24l-10 -31c8,-3 13,-8 15,-13 3,-5 3,-13 1,-21 -3,-10 -6,-16 -11,-21 -4,-2 -7,-3 -11,-2 -4,1 -7,3 -9,7 -2,5 -3,15 -3,31 0,17 -1,29 -3,37 -2,9 -6,16 -11,22 -6,6 -14,10 -24,12 -9,2 -18,2 -27,-1 -9,-3 -17,-9 -23,-17 -6,-8 -11,-19 -14,-32 -5,-20 -5,-37 2,-49 6,-13 18,-23 35,-29zm66 156c16,-2 30,0 42,4 8,2 16,7 23,13 7,5 13,12 17,19 5,10 8,21 9,34 2,24 -4,43 -17,59 -14,15 -34,24 -60,27 -26,2 -47,-3 -63,-16 -16,-13 -25,-31 -27,-55 -2,-24 3,-43 17,-59 13,-15 33,-24 59,-26zm4 33c-19,2 -32,7 -41,16 -9,10 -12,21 -11,34 1,12 7,23 17,30 10,8 24,11 43,9 18,-2 32,-7 40,-16 9,-9 12,-20 11,-33 -1,-13 -7,-24 -16,-31 -10,-8 -25,-10 -43,-9zm-21 263l-12 31c-18,-6 -30,-15 -38,-27 -8,-12 -11,-26 -10,-44 2,-21 10,-38 26,-51 16,-12 36,-18 62,-16 27,2 47,10 61,25 14,15 20,33 19,56 -2,20 -9,35 -21,47 -8,7 -18,11 -31,14l-6 -33c9,-1 16,-4 21,-10 5,-6 8,-13 9,-22 1,-12 -3,-21 -11,-30 -8,-8 -22,-12 -41,-14 -21,-1 -36,2 -45,8 -9,7 -14,16 -15,28 -1,9 2,16 7,23 5,6 13,12 25,15zm-67 56l160 28 -6 32 -160 -28 6 -32zm-52 207l10 -35 39 -4 17 -62 -33 -22 9 -34 141 103 -9 33 -174 21zm78 -42l64 -6 -53 -36 -11 42zm-96 75l123 55 20 -44 25 11 -53 117 -25 -11 20 -43 -124 -55 14 -30zm-43 94l142 78 -16 29 -142 -78 16 -29zm37 97c14,9 24,19 30,29 5,8 8,16 10,25 2,9 2,18 0,26 -3,10 -7,21 -15,32 -14,19 -31,31 -51,34 -21,3 -42,-3 -63,-18 -22,-15 -35,-32 -38,-52 -4,-20 0,-40 14,-59 14,-20 31,-31 51,-35 21,-3 41,3 62,18zm-18 28c-15,-11 -29,-15 -42,-14 -12,2 -22,8 -30,18 -7,11 -10,22 -7,35 3,12 12,23 28,34 15,11 29,15 41,14 12,-2 22,-8 30,-19 8,-11 10,-22 7,-34 -3,-12 -12,-24 -27,-34zm-158 74l119 110 -22 23 -125 -25 79 74 -20 22 -119 -110 22 -24 122 24 -77 -72 21 -22z"/>
   <path class="fil3" d="M1360 2738l-31 -4 17 -116c-13,9 -27,15 -43,18l3 -28c9,-1 18,-5 29,-11 10,-6 18,-14 23,-23l25 3 -23 161zm48 -31l31 -3c0,7 2,11 5,14 3,3 7,5 12,5 7,0 12,-3 17,-8 5,-6 8,-18 10,-36 -8,8 -18,12 -30,12 -13,0 -24,-6 -33,-16 -9,-10 -13,-23 -12,-38 0,-17 6,-30 16,-39 10,-10 23,-15 38,-14 16,0 29,7 40,20 10,13 14,34 13,63 -1,30 -7,51 -18,63 -12,13 -26,19 -44,18 -13,0 -23,-4 -30,-11 -8,-7 -13,-17 -15,-30zm73 -65c1,-10 -1,-18 -6,-24 -4,-5 -10,-8 -16,-9 -5,0 -10,2 -14,7 -4,4 -6,11 -7,22 0,10 2,18 6,23 4,5 9,7 15,8 6,0 11,-2 15,-7 5,-4 7,-11 7,-20zm111 102l-3 -32 -66 6 -3 -27 61 -108 26 -3 10 102 20 -1 2 27 -20 1 3 33 -30 2zm-5 -59l-5 -55 -33 58 38 -3zm65 16l29 -9c3,7 6,12 11,15 5,3 11,4 16,3 7,-1 12,-5 15,-11 3,-6 4,-14 2,-25 -2,-9 -5,-16 -11,-20 -5,-4 -11,-5 -18,-4 -9,2 -16,7 -22,16l-25 1 -1 -85 81 -16 6 29 -58 11 0 28c7,-5 13,-8 20,-10 14,-2 26,1 38,8 11,8 18,20 21,36 3,13 1,25 -4,37 -8,16 -21,26 -39,29 -15,3 -28,1 -39,-5 -10,-6 -18,-15 -22,-28z"/>
   <path class="fil2" d="M970 2493c35,0 64,26 64,59 0,33 -29,60 -64,60 -36,0 -65,-27 -65,-60 0,-33 29,-59 65,-59z"/>
   <path class="fil2" d="M2057 2502c36,0 65,27 65,59 0,33 -29,60 -65,60 -35,0 -64,-27 -64,-60 0,-32 29,-59 64,-59z"/>
   <path class="fil3" d="M1090 1606l-102 0 -14 53 -92 0 109 -322 98 0 109 322 -94 0 -14 -53zm-19 -70l-32 -116 -32 116 64 0zm159 -199l90 0 0 322 -90 0 0 -322zm156 322l0 -322 149 0c28,0 49,2 64,8 14,5 26,15 35,29 9,14 14,32 14,52 0,18 -4,33 -11,46 -6,13 -16,24 -28,32 -8,5 -18,9 -31,13 10,4 18,8 23,12 3,2 8,8 14,16 7,9 11,16 13,20l43 94 -101 0 -48 -99c-6,-12 -11,-21 -16,-24 -7,-5 -14,-8 -22,-8l-8 0 0 131 -90 0zm90 -192l38 0c4,0 12,-1 23,-4 6,-1 11,-5 15,-10 4,-6 6,-12 6,-19 0,-10 -3,-18 -9,-24 -6,-5 -17,-8 -34,-8l-39 0 0 65zm227 -130l90 0 0 322 -90 0 0 -322zm333 269l-102 0 -14 53 -92 0 109 -322 98 0 109 322 -93 0 -15 -53zm-19 -70l-32 -116 -32 116 64 0z"/>
  </g>
 </g>
</svg>
