<?xml version="1.0" encoding="UTF-8"?>
<!DOCTYPE svg PUBLIC "-//W3C//DTD SVG 1.1//EN" "http://www.w3.org/Graphics/SVG/1.1/DTD/svg11.dtd">
<!-- Creator: CorelDRAW X8 -->
<svg xmlns="http://www.w3.org/2000/svg" xml:space="preserve" width="24.4959mm" height="24.4959mm" version="1.1" style="shape-rendering:geometricPrecision; text-rendering:geometricPrecision; image-rendering:optimizeQuality; fill-rule:evenodd; clip-rule:evenodd"
viewBox="0 0 1825 1825"
 xmlns:xlink="http://www.w3.org/1999/xlink">
 <defs>
  <style type="text/css">
   <![CDATA[
    .fil3 {fill:#FEFEFE}
    .fil0 {fill:#FEFEFE}
    .fil1 {fill:#185D3C}
    .fil2 {fill:#FEFEFE}
   ]]>
  </style>
 </defs>
 <g id="Layer_x0020_1">
  <metadata id="CorelCorpID_0Corel-Layer"/>
  <g id="_2028864838416">
   <rect class="fil0" width="1825" height="1825"/>
   <path class="fil1" d="M872 1403l32 71c33,-13 15,-71 65,-72 32,0 43,47 56,74 7,15 48,91 -1,77 -21,-6 -31,-73 -52,-84 -22,24 -20,98 -58,99 -42,1 -37,-76 -60,-100 -21,9 -24,47 -35,67 -13,25 -57,27 -35,-20 16,-35 38,-126 88,-112zm-366 19c-6,-23 28,-61 40,-78 11,-15 39,-60 51,-68 35,-10 112,60 113,96 1,44 -23,44 -49,55 -26,12 -9,60 -47,59 -25,-37 9,-68 -28,-87 -47,-24 -27,37 -80,23zm678 22c-1,9 20,98 -20,63 -6,-5 -28,-60 -34,-74 -33,-75 -50,-89 42,-119 131,-44 77,67 99,90 8,9 23,14 21,33 -2,22 -22,15 -34,9 -41,-22 -35,-33 -74,-2zm-678 -226c19,-13 40,1 29,22l-105 90c-20,10 -39,0 -31,-24 4,-9 25,-24 34,-31 21,-16 50,-42 73,-57zm901 144c-26,16 -48,-48 -59,-68 -12,-23 -46,-71 -29,-92 22,-30 72,-3 100,6 27,10 85,16 81,49 -43,20 -47,-18 -85,27 -37,43 15,51 -8,78zm-600 -917l172 0 1 36c132,24 218,89 302,150l261 192 -14 40c-37,-13 -135,-98 -165,-69l-1 61c0,265 -186,463 -445,464 -229,1 -423,-187 -423,-421 0,-151 79,-279 192,-353 14,-9 119,-58 120,-60l0 -40zm-73 -61l314 0 0 36 -314 1 0 -37zm67 -56l181 0 0 21 -182 0 1 -21zm-22 118l0 22c-56,14 -114,53 -150,83 -26,22 -36,33 -57,58 -17,20 -34,52 -49,67l-217 -133c37,-84 151,-184 228,-233 218,-139 499,-145 725,-19 76,42 210,151 240,219l-171 116c-42,-20 -95,-71 -145,-100 -31,-18 -130,-68 -172,-68 -9,-6 -5,0 -6,-12 15,-8 52,-3 71,-4l1 -83 -64 0 -1 -58 -239 -2 -3 62 -66 0 1 82c14,-1 27,-1 41,-1 13,0 23,-2 33,4zm72 -274c-225,25 -394,126 -496,249 -110,132 -204,310 -184,553 32,401 383,716 804,681 386,-32 717,-371 679,-806 -34,-379 -381,-725 -803,-677z"/>
   <path class="fil1" d="M819 144c454,-60 820,290 864,679 53,462 -286,812 -680,861 -443,54 -817,-277 -862,-681 -51,-462 284,-807 678,-859zm41 -34c-130,12 -212,34 -316,87 -169,86 -312,242 -382,423 -211,550 200,1128 807,1097 412,-20 781,-397 747,-857 -30,-419 -405,-795 -856,-750z"/>
   <path class="fil1" d="M1055 1276c24,-34 -76,-104 -10,-147 16,-11 51,-31 39,-61 -8,-23 -56,-6 -83,-10 -23,-18 -10,-32 -46,-46 -19,-7 -54,-19 -74,-15 -10,30 -6,110 -13,152 -5,27 -32,123 -22,138 25,12 37,-16 56,-21 35,-9 26,23 49,33l2 2c7,-7 29,-28 30,-36l72 11z"/>
   <path class="fil1" d="M960 612c-28,-4 -24,19 -55,15 -20,-3 -29,-17 -55,-17 -8,18 21,128 26,161 3,27 3,67 8,90 7,32 35,28 44,53l-15 0c-9,0 -17,0 -21,4 12,10 32,19 27,28 -6,11 -21,8 -27,15 6,9 51,25 63,31 10,-1 -2,-14 -15,-28 -2,-14 16,-4 17,-21 -1,-9 -11,-8 -15,-23 28,-38 14,-22 16,-72 1,-61 20,-209 2,-236z"/>
   <path class="fil2" d="M872 1403c-50,-14 -72,77 -88,112 -22,47 22,45 35,20 11,-20 14,-58 35,-67 23,24 18,101 60,100 38,-1 36,-75 58,-99 21,11 31,78 52,84 49,14 8,-62 1,-77 -13,-27 -24,-74 -56,-74 -50,1 -32,59 -65,72l-32 -71z"/>
   <path class="fil2" d="M1217 1340c13,25 7,33 -14,48 -12,9 -31,28 -48,13 -18,-15 -9,-36 9,-45 15,-8 33,-22 53,-16zm-33 104c39,-31 33,-20 74,2 12,6 32,13 34,-9 2,-19 -13,-24 -21,-33 -22,-23 32,-134 -99,-90 -92,30 -75,44 -42,119 6,14 28,69 34,74 40,35 19,-54 20,-63z"/>
   <path class="fil2" d="M603 1325c17,-9 36,9 50,18 32,18 24,69 -51,26 -20,-12 -17,-34 1,-44zm-97 97c53,14 33,-47 80,-23 37,19 3,50 28,87 38,1 21,-47 47,-59 26,-11 50,-11 49,-55 -1,-36 -78,-106 -113,-96 -12,8 -40,53 -51,68 -12,17 -46,55 -40,78z"/>
   <path class="fil2" d="M1402 1236c-4,13 -15,27 -25,33 -7,-14 -19,-26 -22,-45 18,1 31,7 47,12zm5 126c23,-27 -29,-35 8,-78 38,-45 42,-7 85,-27 4,-33 -54,-39 -81,-49 -28,-9 -78,-36 -100,-6 -17,21 17,69 29,92 11,20 33,84 59,68z"/>
   <polygon class="fil3" points="734,421 1048,420 1048,384 734,384 "/>
   <path class="fil2" d="M506 1218c-23,15 -52,41 -73,57 -9,7 -30,22 -34,31 -8,24 11,34 31,24l105 -90c11,-21 -10,-35 -29,-22z"/>
   <polygon class="fil3" points="800,349 982,349 982,328 801,328 "/>
   <path class="fil1" d="M1029 798c4,34 96,34 80,-8 -4,-11 -27,-26 -44,-28 -22,-3 -38,15 -36,36z"/>
   <path class="fil1" d="M1021 674c-37,20 -4,72 44,55 52,-17 -8,-74 -44,-55z"/>
   <path class="fil1" d="M679 651c-23,13 -17,24 4,44 12,12 27,27 46,14 36,-23 -13,-79 -50,-58z"/>
   <path class="fil1" d="M1217 1340c-20,-6 -38,8 -53,16 -18,9 -27,30 -9,45 17,15 36,-4 48,-13 21,-15 27,-23 14,-48z"/>
   <path class="fil1" d="M603 1325c-18,10 -21,32 -1,44 75,43 83,-8 51,-26 -14,-9 -33,-27 -50,-18z"/>
   <path class="fil1" d="M735 568c-17,32 25,76 49,64 36,-20 -2,-74 -49,-64z"/>
   <path class="fil1" d="M1147 709c16,10 16,14 44,6 17,-5 26,-14 25,-36 -32,-22 -73,-29 -69,30z"/>
   <path class="fil1" d="M714 788c6,-60 -63,-39 -73,-26 -12,17 11,28 26,33 22,7 27,3 47,-7z"/>
   <path class="fil1" d="M821 769c24,-49 -29,-59 -47,-18 -18,42 25,63 47,18z"/>
   <path class="fil1" d="M891 498c-4,14 -14,30 -11,51 7,51 55,34 44,-15 -5,-23 -12,-33 -33,-36z"/>
   <path class="fil1" d="M1251 800c12,-17 18,-33 -7,-41 -29,-8 -43,3 -43,29 21,14 21,17 50,12z"/>
   <path class="fil1" d="M1098 589c-8,4 -8,-1 -13,13 -7,23 12,41 38,31 30,-12 7,-59 -25,-44z"/>
   <path class="fil1" d="M1034 562c6,-10 6,-19 -1,-28 -22,-2 -43,7 -40,30 5,30 33,4 41,-2z"/>
   <path class="fil1" d="M1377 1269c10,-6 21,-20 25,-33 -16,-5 -29,-11 -47,-12 3,19 15,31 22,45z"/>
  </g>
 </g>
</svg>
