<?xml version="1.0" encoding="UTF-8"?>
<!DOCTYPE svg PUBLIC "-//W3C//DTD SVG 1.1//EN" "http://www.w3.org/Graphics/SVG/1.1/DTD/svg11.dtd">
<!-- Creator: CorelDRAW X8 -->
<svg xmlns="http://www.w3.org/2000/svg" xml:space="preserve" width="8.4667mm" height="10.702mm" version="1.1" style="shape-rendering:geometricPrecision; text-rendering:geometricPrecision; image-rendering:optimizeQuality; fill-rule:evenodd; clip-rule:evenodd"
viewBox="0 0 161 204"
 xmlns:xlink="http://www.w3.org/1999/xlink">
 <defs>
  <style type="text/css">
   <![CDATA[
    .fil0 {fill:#B6B6B7;fill-rule:nonzero}
   ]]>
  </style>
 </defs>
 <g id="Layer_x0020_1">
  <metadata id="CorelCorpID_0Corel-Layer"/>
  <g id="_1424606721936">
   <path class="fil0" d="M101 126c-7,5 -11,13 -12,21 -1,9 1,17 6,24 8,11 24,16 37,11l1 -1 15 20c3,3 7,4 10,1 2,-1 3,-2 3,-4 1,-2 0,-4 -1,-6l-15 -20 1 -1c3,-4 5,-9 6,-15 1,-8 -1,-17 -6,-23 -5,-7 -13,-12 -21,-13 -8,-1 -17,1 -24,6zm36 13c4,5 5,10 4,16 -1,5 -4,10 -8,14 -9,6 -22,5 -29,-5 -4,-4 -5,-10 -4,-15 1,-6 3,-11 8,-14 4,-3 10,-5 15,-4 6,1 11,4 14,8z"/>
   <path class="fil0" d="M141 168c0,7 0,12 -7,12l-119 0c-7,0 -8,-5 -8,-12l0 -149c0,-6 1,-12 8,-12l119 0c7,0 7,6 7,12l0 149 0 0zm-7 -168l-119 0c-11,0 -15,8 -15,19l0 149c0,11 4,19 15,19l119 0c11,0 15,-8 15,-19l0 -149c0,-11 -4,-19 -15,-19z"/>
   <path class="fil0" d="M114 82l-79 0c-2,0 -3,1 -3,3 0,2 1,4 3,4l79 0c2,0 3,-2 3,-4 0,-2 -1,-3 -3,-3z"/>
   <path class="fil0" d="M114 97l-79 0c-2,0 -3,2 -3,4 0,2 1,3 3,3l79 0c2,0 3,-1 3,-3 0,-2 -1,-4 -3,-4z"/>
   <path class="fil0" d="M114 113l-79 0c-2,0 -3,2 -3,4 0,1 1,3 3,3l79 0c2,0 3,-2 3,-3 0,-2 -1,-4 -3,-4z"/>
   <path class="fil0" d="M98 129l-25 0c-1,0 -2,1 -2,3 0,2 1,4 2,4l25 0c1,0 2,-2 2,-4 0,-2 -1,-3 -2,-3z"/>
   <path class="fil0" d="M97 144l-24 0c-1,0 -2,1 -2,3 0,2 1,4 2,4l24 0c1,0 2,-2 2,-4 0,-2 -1,-3 -2,-3z"/>
   <path class="fil0" d="M54 53l0 0 -2 -3c1,1 2,1 3,1 1,0 2,0 3,-1l-2 3 0 0 5 13 -6 6 -7 -6 6 -13zm24 14c0,-7 -7,-16 -17,-18 4,-3 7,-9 7,-14 0,-7 -6,-13 -13,-13 -7,0 -13,6 -13,13 0,5 3,11 7,14 -10,2 -17,11 -17,18 0,7 46,7 46,0z"/>
  </g>
 </g>
</svg>
