<?xml version="1.0" encoding="UTF-8"?>
<!DOCTYPE svg PUBLIC "-//W3C//DTD SVG 1.1//EN" "http://www.w3.org/Graphics/SVG/1.1/DTD/svg11.dtd">
<!-- Creator: CorelDRAW X8 -->
<svg xmlns="http://www.w3.org/2000/svg" xml:space="preserve" width="8.5428mm" height="10.7726mm" version="1.1" style="shape-rendering:geometricPrecision; text-rendering:geometricPrecision; image-rendering:optimizeQuality; fill-rule:evenodd; clip-rule:evenodd"
viewBox="0 0 144 181"
 xmlns:xlink="http://www.w3.org/1999/xlink">
 <defs>
  <style type="text/css">
   <![CDATA[
    .str0 {stroke:#B6B6B7;stroke-width:1.28264}
    .fil0 {fill:#B6B6B7;fill-rule:nonzero}
   ]]>
  </style>
 </defs>
 <g id="Layer_x0020_1">
  <metadata id="CorelCorpID_0Corel-Layer"/>
  <path class="fil0" d="M45 154c4,-7 9,-17 13,-30l25 0c0,0 0,0 1,0 3,11 7,21 12,30l-51 0zm26 -84c2,14 5,30 10,47l-21 0c4,-13 8,-28 11,-47zm4 -18c4,-2 6,-5 6,-9 0,-5 -5,-10 -10,-10 -6,0 -10,5 -10,10 0,4 2,7 5,9 -10,90 -42,123 -43,123 -1,2 -1,4 0,5 2,2 4,2 5,0 1,0 6,-6 14,-19 0,0 0,0 1,0l56 0c5,8 9,14 14,19 1,1 2,1 3,1 1,0 2,0 2,-1 2,-1 2,-3 0,-5 -28,-28 -39,-98 -43,-123z"/>
  <path class="fil0 str0" d="M42 83c-23,0 -41,-18 -41,-41 0,-23 18,-41 41,-41l0 2c-22,0 -39,18 -39,39 0,21 17,39 39,39l0 2zm5 -70l0 3c-14,0 -26,11 -26,26 0,14 12,26 26,26l0 2c-15,0 -28,-13 -28,-28 0,-16 13,-29 28,-29zm-6 28c0,8 6,14 14,14l0 2c-9,0 -16,-7 -16,-16 0,-8 7,-15 16,-15l0 2c-8,0 -14,6 -14,13zm102 1c0,22 -18,41 -41,41l0 -2c21,0 39,-18 39,-39 0,-22 -18,-39 -39,-39l0 -2c23,0 41,18 41,41zm-47 -27l0 -2c16,0 29,13 29,28 0,16 -13,29 -29,29l0 -2c15,0 27,-12 27,-27 0,-14 -12,-26 -27,-26zm-7 42l0 -3c8,0 14,-6 14,-13 0,-7 -6,-13 -14,-13l0 -3c9,0 16,7 16,16 0,9 -7,16 -16,16z"/>
 </g>
</svg>
