<?xml version="1.0" encoding="UTF-8"?>
<!DOCTYPE svg PUBLIC "-//W3C//DTD SVG 1.1//EN" "http://www.w3.org/Graphics/SVG/1.1/DTD/svg11.dtd">
<!-- Creator: CorelDRAW X8 -->
<svg xmlns="http://www.w3.org/2000/svg" xml:space="preserve" width="201.901mm" height="67.9219mm" version="1.1" style="shape-rendering:geometricPrecision; text-rendering:geometricPrecision; image-rendering:optimizeQuality; fill-rule:evenodd; clip-rule:evenodd"
viewBox="0 0 13479 4535"
 xmlns:xlink="http://www.w3.org/1999/xlink">
 <defs>
  <style type="text/css">
   <![CDATA[
    .fil3 {fill:#8B8B8C;fill-rule:nonzero}
    .fil2 {fill:#535150;fill-rule:nonzero}
    .fil1 {fill:#CF142B;fill-rule:nonzero}
    .fil0 {fill:#B01C2E;fill-rule:nonzero}
   ]]>
  </style>
 </defs>
 <g id="Layer_x0020_1">
  <metadata id="CorelCorpID_0Corel-Layer"/>
  <g id="_2089912530496">
   <polygon class="fil0" points="794,3999 481,3686 592,3205 1589,3205 "/>
   <polygon class="fil1" points="1329,4535 794,3999 2163,2631 2268,2736 1683,4343 "/>
   <polygon class="fil0" points="3686,4055 3205,3944 3205,2947 3762,3505 3999,3741 "/>
   <polygon class="fil1" points="3999,3741 3762,3505 3205,2947 2630,2373 2735,2268 4343,2853 4534,3206 "/>
   <polygon class="fil0" points="2945,1330 2975,1301 3740,535 4053,849 3942,1330 "/>
   <polygon class="fil1" points="2371,1904 2266,1799 2851,191 3205,0 3740,535 3740,535 2975,1301 "/>
   <polygon class="fil0" points="1330,1588 535,793 848,480 1330,590 "/>
   <polygon class="fil1" points="1799,2267 191,1682 0,1328 535,793 1904,2162 "/>
   <polygon class="fil0" points="786,2478 0,2478 0,2167 293,1984 "/>
   <polygon class="fil1" points="270,3084 0,3004 0,2478 1328,2478 1328,2590 "/>
   <polygon class="fil0" points="2476,4534 2165,4534 1982,4242 2476,3748 "/>
   <polygon class="fil1" points="3002,4534 2476,4534 2476,3206 2589,3206 3082,4265 "/>
   <polygon class="fil0" points="4241,2550 3748,2057 4534,2057 4534,2367 "/>
   <polygon class="fil1" points="4534,2057 3206,2057 3206,1944 4264,1450 4534,1530 "/>
   <polygon class="fil0" points="2057,786 2057,0 2367,0 2550,293 2057,786 "/>
   <polygon class="fil1" points="2057,1328 1944,1328 1450,270 1530,0 2057,0 "/>
   <polygon class="fil2" points="5636,2060 5941,2060 5941,536 5636,536 "/>
   <path class="fil2" d="M7487 2060l-335 0 -120 -340 -557 0 -120 340 -326 0 583 -1524 296 0 579 1524zm-734 -1143c-15,57 -45,148 -76,237l-98 277 348 0 -97 -277c-31,-89 -61,-180 -77,-237z"/>
   <path class="fil2" d="M8033 2060l-455 0 0 -1524 477 0c435,0 757,205 757,762 0,535 -387,762 -779,762zm-150 -1228l0 932 150 0c320,0 466,-187 466,-466 0,-311 -133,-466 -455,-466l-161 0z"/>
   <path class="fil2" d="M9567 2084c-398,0 -666,-305 -666,-786 0,-464 279,-786 677,-786 287,0 461,140 557,338l-283 130c-54,-104 -141,-165 -278,-165 -229,0 -359,200 -359,483 0,274 132,483 361,483 137,0 217,-59 298,-193l0 0 0 0 0 -1 1 1 274 100c-7,25 -18,52 -18,52 -105,215 -288,344 -564,344z"/>
   <path class="fil3" d="M6301 3910l-365 -856c-37,-87 -80,-195 -97,-239 2,44 4,176 4,268l0 803 -215 0 0 -1520 234 0 341 810c37,87 85,197 105,260 21,-63 65,-171 102,-260l334 -810 243 0 0 1520 -223 0 0 -803c0,-92 2,-224 4,-268 -17,44 -61,152 -98,239l-369 856z"/>
   <polygon class="fil3" points="8186,3886 7174,3886 7174,2366 8153,2366 8153,2587 7402,2587 7402,2963 7838,2963 7838,3185 7402,3185 7402,3664 8186,3664 "/>
   <path class="fil3" d="M9017 3910l-365 -856c-36,-87 -80,-195 -97,-239 2,44 4,176 4,268l0 803 -215 0 0 -1520 235 0 341 810c36,87 84,197 104,260 21,-63 65,-171 102,-260l334 -810 243 0 0 1520 -223 0 0 -803c0,-92 2,-224 4,-268 -17,44 -61,152 -98,239l-369 856z"/>
   <path class="fil3" d="M10494 3886l-604 0 0 -1520 625 0c265,0 437,139 437,395 0,154 -83,250 -193,304 119,33 256,143 256,354 0,308 -189,467 -521,467zm-389 -712l0 503 406 0c202,0 276,-102 276,-251 0,-157 -98,-252 -269,-252l-413 0zm0 -600l0 393 408 0c150,0 211,-93 211,-193 0,-113 -59,-200 -211,-200l-408 0z"/>
   <polygon class="fil3" points="12166,3886 11154,3886 11154,2366 12133,2366 12133,2587 11382,2587 11382,2963 11818,2963 11818,3185 11382,3185 11382,3664 12166,3664 "/>
   <path class="fil3" d="M13455 3886l-262 0 -302 -602 -343 0 0 602 -224 0 0 -1520 667 0c265,0 488,141 488,454 0,243 -128,393 -334,445l310 621zm-907 -1305l0 488 443 0c152,0 258,-78 258,-243 0,-158 -104,-245 -258,-245l-443 0z"/>
  </g>
 </g>
</svg>
