<?xml version="1.0" encoding="UTF-8"?>
<!DOCTYPE svg PUBLIC "-//W3C//DTD SVG 1.1//EN" "http://www.w3.org/Graphics/SVG/1.1/DTD/svg11.dtd">
<!-- Creator: CorelDRAW X8 -->
<svg xmlns="http://www.w3.org/2000/svg" xml:space="preserve" width="8.4667mm" height="10.6382mm" version="1.1" style="shape-rendering:geometricPrecision; text-rendering:geometricPrecision; image-rendering:optimizeQuality; fill-rule:evenodd; clip-rule:evenodd"
viewBox="0 0 159 200"
 xmlns:xlink="http://www.w3.org/1999/xlink">
 <defs>
  <style type="text/css">
   <![CDATA[
    .fil0 {fill:#B6B6B7;fill-rule:nonzero}
   ]]>
  </style>
 </defs>
 <g id="Layer_x0020_1">
  <metadata id="CorelCorpID_0Corel-Layer"/>
  <g id="_1424606729824">
   <path class="fil0" d="M22 121c12,31 47,46 77,34 16,-6 28,-18 34,-33 1,-1 0,-3 -1,-3 -2,-1 -4,0 -4,1 -6,14 -16,25 -31,30 -28,11 -59,-2 -69,-30 -11,-29 2,-60 30,-70 28,-11 59,2 70,30 0,1 3,2 4,2 1,-1 2,-2 1,-4 -12,-30 -46,-45 -77,-34 -30,12 -46,47 -34,77z"/>
   <path class="fil0" d="M116 108c-4,-4 -4,-12 0,-17 5,-4 12,-4 17,0 5,5 5,13 0,17 -5,5 -12,5 -17,0zm20 -20c-6,-6 -17,-6 -23,0 -2,2 -4,5 -4,8l-60 0c-1,0 -2,1 -2,2 0,0 0,2 0,3 0,0 1,0 2,0l5 0 0 8c0,1 0,1 0,2 1,0 1,0 2,0 1,0 1,-1 1,-2l0 -8 5 0 0 6c0,0 0,1 0,1 1,0 1,1 2,1 1,0 1,-1 1,-2l0 -6 5 0 0 8c0,1 0,1 0,2 1,0 1,0 2,0 1,0 1,-1 1,-2l0 -8 35 0c1,4 2,7 5,10 6,7 17,7 23,0 6,-6 6,-16 0,-23z"/>
  </g>
  <path class="fil0" d="M151 180c0,6 -1,12 -8,12l-127 0c-7,0 -8,-6 -8,-12l0 -160c0,-7 1,-12 8,-12l127 0c7,0 8,5 8,12l0 160 0 0zm-8 -180l-127 0c-11,0 -16,9 -16,20l0 160c0,11 5,20 16,20l127 0c11,0 16,-9 16,-20l0 -160c0,-11 -5,-20 -16,-20z"/>
 </g>
</svg>
