<?xml version="1.0" encoding="UTF-8"?>
<!DOCTYPE svg PUBLIC "-//W3C//DTD SVG 1.1//EN" "http://www.w3.org/Graphics/SVG/1.1/DTD/svg11.dtd">
<!-- Creator: CorelDRAW X8 -->
<svg xmlns="http://www.w3.org/2000/svg" xml:space="preserve" width="33.8666mm" height="10.7658mm" version="1.1" style="shape-rendering:geometricPrecision; text-rendering:geometricPrecision; image-rendering:optimizeQuality; fill-rule:evenodd; clip-rule:evenodd"
viewBox="0 0 3387 1077"
 xmlns:xlink="http://www.w3.org/1999/xlink">
 <defs>
  <style type="text/css">
   <![CDATA[
    .fil0 {fill:#332C2B}
    .fil1 {fill:#FDD100}
   ]]>
  </style>
 </defs>
 <g id="Layer_x0020_1">
  <metadata id="CorelCorpID_0Corel-Layer"/>
  <path class="fil0" d="M1368 280l86 0c26,0 46,7 61,21 15,14 23,32 23,56 0,13 -3,27 -10,41 -7,14 -20,26 -39,34l73 108 -64 0 -67 -100 -7 0 0 100 -56 0 0 -260zm57 47l0 67 12 0c29,0 43,-12 43,-35 0,-10 -3,-18 -11,-24 -8,-5 -18,-8 -32,-8l-12 0 0 0zm321 -47l146 0 0 52 -90 0 0 52 90 0 0 51 -90 0 0 54 90 0 0 51 -146 0 0 -260zm313 0l56 0 66 173 66 -173 57 0 -99 260 -48 0 -98 -260 0 0zm477 0l43 0 106 260 -56 0 -21 -51 -100 0 -20 51 -56 0 104 -260zm21 85l-30 77 62 0 -32 -77zm266 -85l175 0 0 56 -60 0 0 204 -56 0 0 -204 -59 0 0 -56zm414 0l44 0 106 260 -56 0 -22 -51 -99 0 -21 51 -56 0 104 -260zm22 85l-30 77 61 0 -31 -77z"/>
  <path class="fil0" d="M1476 859l29 4c-4,22 -13,38 -26,49 -12,11 -28,16 -47,16 -23,0 -42,-9 -57,-26 -14,-18 -22,-44 -22,-78 0,-35 8,-61 22,-80 15,-18 34,-27 56,-27 22,0 40,9 54,27 14,18 21,44 21,78l0 9 -124 0c1,23 7,40 16,52 9,11 21,17 34,17 22,0 36,-14 45,-41l-1 0zm-92 -56l93 0c-2,-17 -5,-31 -12,-39 -9,-13 -20,-19 -34,-19 -13,0 -23,5 -32,16 -9,10 -14,24 -15,42l0 0zm196 121l0 -203 25 0 0 29c7,-11 14,-19 23,-25 9,-5 19,-8 30,-8 9,0 17,2 25,5 8,3 14,8 18,14 5,5 8,13 11,22 2,9 3,23 3,41l0 125 -28 0 0 -123c0,-15 -1,-26 -4,-33 -3,-7 -6,-12 -12,-16 -5,-4 -11,-6 -19,-6 -13,0 -24,6 -32,16 -8,10 -12,27 -12,51l0 111 -28 0 0 0zm212 17l28 4c1,11 5,19 11,25 6,5 15,8 26,8 13,0 23,-3 30,-9 7,-6 12,-15 15,-27 2,-7 2,-22 2,-45 -6,9 -13,16 -20,20 -8,5 -16,7 -26,7 -19,0 -36,-9 -49,-25 -15,-20 -22,-46 -22,-78 0,-22 3,-41 10,-57 6,-16 15,-28 26,-36 10,-7 22,-11 36,-11 10,0 18,2 26,7 9,5 16,12 22,22l0 -25 26 0 0 175c0,32 -3,54 -8,67 -5,13 -13,24 -25,31 -11,8 -25,12 -42,12 -21,0 -37,-6 -49,-17 -12,-12 -17,-28 -17,-48l0 0zm24 -122c0,27 4,46 13,58 9,12 19,18 32,18 13,0 24,-5 32,-18 9,-11 14,-31 14,-57 0,-25 -5,-44 -14,-56 -9,-13 -20,-19 -33,-19 -12,0 -22,6 -31,19 -9,12 -13,31 -13,55l0 0zm199 -135l0 -40 28 0 0 40 -28 0zm0 240l0 -203 28 0 0 203 -28 0zm110 0l0 -203 26 0 0 29c6,-11 13,-19 22,-25 9,-5 19,-8 30,-8 9,0 18,2 25,5 8,3 14,8 18,14 5,5 9,13 11,22 2,9 3,23 3,41l0 125 -28 0 0 -123c0,-15 -1,-26 -4,-33 -2,-7 -6,-12 -12,-16 -5,-4 -11,-6 -18,-6 -14,0 -25,6 -33,16 -8,10 -12,27 -12,51l0 111 -28 0 0 0zm331 -65l29 4c-5,22 -13,38 -26,49 -13,11 -28,16 -47,16 -24,0 -43,-9 -57,-26 -15,-18 -22,-44 -22,-78 0,-35 7,-61 22,-80 15,-18 33,-27 56,-27 21,0 39,9 54,27 14,18 21,44 21,78l0 9 -124 0c1,23 6,40 16,52 9,11 21,17 34,17 21,0 36,-14 44,-41l0 0zm-92 -56l92 0c-1,-17 -5,-31 -11,-39 -9,-13 -20,-19 -34,-19 -13,0 -24,5 -33,16 -9,10 -13,24 -14,42l0 0zm310 56l29 4c-5,22 -14,38 -27,49 -12,11 -28,16 -47,16 -23,0 -42,-9 -57,-26 -14,-18 -22,-44 -22,-78 0,-35 8,-61 22,-80 15,-18 34,-27 56,-27 22,0 40,9 54,27 14,18 21,44 21,78l0 9 -124 0c2,23 7,40 16,52 10,11 21,17 35,17 21,0 35,-14 44,-41l0 0zm-93 -56l93 0c-2,-17 -5,-31 -11,-39 -9,-13 -21,-19 -35,-19 -13,0 -23,5 -32,16 -9,10 -14,24 -15,42l0 0zm196 121l0 -203 26 0 0 31c6,-14 12,-24 17,-28 6,-5 12,-7 19,-7 9,0 19,3 28,11l-9 32c-7,-5 -14,-8 -21,-8 -5,0 -11,2 -16,7 -5,4 -8,10 -10,17 -4,13 -6,27 -6,42l0 106 -28 0 0 0zm146 -240l0 -40 28 0 0 40 -28 0zm0 240l0 -203 28 0 0 203 -28 0zm110 0l0 -203 26 0 0 29c6,-11 13,-19 22,-25 9,-5 19,-8 31,-8 9,0 17,2 24,5 8,3 14,8 19,14 4,5 8,13 10,22 2,9 4,23 4,41l0 125 -29 0 0 -123c0,-15 -1,-26 -4,-33 -2,-7 -6,-12 -12,-16 -5,-4 -11,-6 -18,-6 -14,0 -24,6 -32,16 -8,10 -12,27 -12,51l0 111 -29 0 0 0zm212 17l28 4c1,11 5,19 11,25 7,5 16,8 27,8 12,0 22,-3 29,-9 8,-6 13,-15 15,-27 2,-7 3,-22 3,-45 -6,9 -13,16 -21,20 -7,5 -16,7 -25,7 -20,0 -36,-9 -50,-25 -14,-20 -22,-46 -22,-78 0,-22 3,-41 10,-57 7,-16 15,-28 26,-36 11,-7 23,-11 36,-11 10,0 19,2 27,7 8,5 15,12 21,22l0 -25 26 0 0 175c0,32 -2,54 -7,67 -5,13 -14,24 -25,31 -12,8 -26,12 -42,12 -22,0 -38,-6 -50,-17 -11,-12 -17,-28 -17,-48l0 0zm24 -122c0,27 4,46 13,58 9,12 20,18 32,18 13,0 24,-5 33,-18 9,-11 13,-31 13,-57 0,-25 -4,-44 -14,-56 -9,-13 -20,-19 -33,-19 -12,0 -22,6 -31,19 -9,12 -13,31 -13,55l0 0z"/>
  <path class="fil0" d="M1368 280l86 0c26,0 46,7 61,21 15,14 23,32 23,56 0,13 -3,27 -10,41 -7,14 -20,26 -39,34l73 108 -64 0 -67 -100 -7 0 0 100 -56 0 0 -260zm57 47l0 67 12 0c29,0 43,-12 43,-35 0,-10 -3,-18 -11,-24 -8,-5 -18,-8 -32,-8l-12 0 0 0zm321 -47l146 0 0 52 -90 0 0 52 90 0 0 51 -90 0 0 54 90 0 0 51 -146 0 0 -260zm313 0l56 0 66 173 66 -173 57 0 -99 260 -48 0 -98 -260 0 0zm477 0l43 0 106 260 -56 0 -21 -51 -100 0 -20 51 -56 0 104 -260zm21 85l-30 77 62 0 -32 -77zm266 -85l175 0 0 56 -60 0 0 204 -56 0 0 -204 -59 0 0 -56zm414 0l44 0 106 260 -56 0 -22 -51 -99 0 -21 51 -56 0 104 -260zm22 85l-30 77 61 0 -31 -77z"/>
  <g id="_1389507505232">
   <path class="fil1" d="M108 85c171,-149 491,-96 737,114 -205,-167 -463,-206 -604,-81 -155,138 -108,427 105,642 213,215 513,278 668,140 123,-109 119,-313 7,-500 140,220 147,462 0,592 -184,160 -538,87 -790,-163 -251,-249 -306,-584 -123,-744l0 0z"/>
   <path class="fil1" d="M784 302c140,111 198,293 117,395 -47,59 -124,78 -208,62 68,10 130,-7 168,-55 70,-87 20,-243 -100,-339 -121,-95 -270,-104 -340,-17 -70,87 -21,237 100,332 1,2 3,3 4,4 -6,-5 -12,-10 -18,-14 -140,-112 -198,-286 -117,-388 82,-102 255,-92 394,20l0 0z"/>
   <ellipse class="fil0" transform="matrix(0.432711 0.309208 -0.304976 0.438717 639.161 509.889)" rx="277" ry="186"/>
  </g>
 </g>
</svg>
