<?xml version="1.0" encoding="UTF-8"?>
<!DOCTYPE svg PUBLIC "-//W3C//DTD SVG 1.1//EN" "http://www.w3.org/Graphics/SVG/1.1/DTD/svg11.dtd">
<!-- Creator: CorelDRAW X8 -->
<svg xmlns="http://www.w3.org/2000/svg" xml:space="preserve" width="33.8667mm" height="18.3682mm" version="1.1" style="shape-rendering:geometricPrecision; text-rendering:geometricPrecision; image-rendering:optimizeQuality; fill-rule:evenodd; clip-rule:evenodd"
viewBox="0 0 3387 1837"
 xmlns:xlink="http://www.w3.org/1999/xlink">
 <defs>
  <style type="text/css">
   <![CDATA[
    .fil4 {fill:#FEFEFE}
    .fil2 {fill:#373435}
    .fil3 {fill:#ED3237}
    .fil0 {fill:#373435;fill-rule:nonzero}
    .fil1 {fill:#ED3237;fill-rule:nonzero}
   ]]>
  </style>
 </defs>
 <g id="Layer_x0020_1">
  <metadata id="CorelCorpID_0Corel-Layer"/>
  <g id="_1424758971744">
   <g>
    <path class="fil0" d="M1553 1174l-25 0 0 136 25 0c13,0 22,-3 27,-7 4,-5 6,-13 6,-25l0 -73c0,-12 -2,-20 -6,-24 -5,-5 -14,-7 -27,-7zm32 251c0,-16 -3,-26 -8,-32 -6,-6 -17,-8 -32,-8l-17 0 0 150 -102 0 0 -439 106 0c64,0 105,8 125,24 21,16 31,46 31,89l0 50c0,26 -6,45 -17,58 -11,14 -29,23 -54,27 24,3 41,11 52,24 11,12 17,30 17,52l0 115 -101 0 0 -110zm244 -113l0 30 56 0 0 -30c0,-13 -1,-22 -5,-26 -4,-4 -11,-6 -23,-6 -11,0 -19,2 -23,6 -3,5 -5,13 -5,26zm-92 30c0,-47 8,-80 24,-97 16,-17 47,-25 93,-25 46,0 77,8 93,25 16,17 24,50 24,97l0 61 -142 0 0 39c0,12 1,21 5,25 4,3 11,5 22,5 11,0 18,-2 22,-6 3,-4 5,-12 5,-24l0 -7 88 0 0 21c0,32 -8,55 -25,67 -16,12 -49,18 -99,18 -42,0 -71,-9 -87,-26 -15,-17 -23,-49 -23,-96l0 -77zm310 193l-47 -310 89 0 28 260 36 -260 84 0 -50 310 -140 0zm351 -82l0 -33c0,-7 -2,-12 -5,-16 -4,-3 -10,-5 -16,-5 -7,0 -13,2 -16,5 -4,4 -6,9 -6,16l0 33c0,7 2,12 6,16 3,3 9,5 16,5 6,0 12,-2 16,-5 3,-4 5,-9 5,-16zm5 82l0 -24c-7,11 -15,18 -25,23 -11,4 -24,7 -41,7 -26,0 -45,-6 -55,-19 -10,-12 -15,-34 -15,-65l0 -38c0,-26 5,-45 17,-57 12,-12 30,-18 56,-18 10,0 21,1 31,4 10,3 19,8 27,14l0 -46c0,-13 -1,-21 -4,-25 -3,-4 -9,-6 -17,-6 -9,0 -15,2 -17,6 -3,4 -4,12 -4,25l-80 0 0 -23c0,-28 7,-47 21,-58 14,-10 42,-15 85,-15 43,0 71,5 85,15 14,11 21,30 21,58l0 242 -85 0zm247 -259l28 0c13,0 21,-2 25,-6 4,-5 6,-13 6,-25l0 -40c0,-12 -2,-20 -6,-24 -4,-5 -12,-7 -25,-7l-28 0 0 102zm0 68l0 115 31 0c12,0 21,-3 25,-7 4,-5 6,-13 6,-25l0 -51c0,-12 -2,-21 -6,-25 -5,-5 -13,-7 -25,-7l-31 0zm165 100c0,35 -8,59 -25,72 -16,13 -49,19 -100,19l-141 0 0 -439 136 0c51,0 84,7 101,20 16,13 25,37 25,72l0 39c0,24 -6,42 -16,55 -11,12 -29,20 -54,25 25,1 43,9 56,23 12,15 18,36 18,64l0 50zm277 -219l0 310 -84 0 0 -39c-9,16 -20,28 -31,34 -12,7 -27,11 -45,11 -24,0 -41,-7 -50,-20 -10,-13 -15,-38 -15,-74l0 -222 90 0 0 217c0,11 2,18 5,22 3,4 9,6 17,6 9,0 15,-2 18,-6 3,-4 5,-11 5,-22l0 -217 90 0zm146 310l-90 0 0 -446 90 0 0 446zm149 0l-91 0 0 -446 91 0 0 446z"/>
    <path class="fil1" d="M2730 1587l24 165 16 -165 59 0 -31 199 -85 0 -23 -168 -24 168 -85 0 -31 -199 59 0 16 165 24 -165 81 0zm122 29l0 -33 53 0 0 33 -53 0zm53 170l-53 0 0 -141 53 0 0 141zm87 -98l0 55c0,6 1,10 3,11 2,2 6,3 11,3 5,0 8,-1 10,-3 2,-1 3,-5 3,-11l0 -55c0,-6 -1,-9 -3,-11 -2,-2 -5,-3 -10,-3 -5,0 -9,1 -11,3 -2,2 -3,5 -3,11zm-53 149l0 -192 51 0 0 17c5,-6 10,-11 17,-15 7,-3 16,-4 26,-4 15,0 25,3 31,10 6,7 9,19 9,35l0 55c0,16 -3,28 -8,35 -6,7 -17,10 -31,10 -10,0 -18,-2 -25,-5 -6,-3 -12,-8 -17,-14l0 68 -53 0zm216 -153l0 14 34 0 0 -14c0,-5 -1,-9 -4,-11 -2,-2 -6,-3 -13,-3 -7,0 -11,1 -14,3 -2,2 -3,6 -3,11zm-54 14c0,-21 4,-36 14,-44 10,-7 28,-11 55,-11 27,0 45,4 55,11 10,8 14,23 14,44l0 28 -84 0 0 17c0,6 1,10 3,11 2,2 7,3 13,3 7,0 11,-1 13,-3 2,-2 3,-5 3,-11l0 -3 52 0 0 9c0,15 -4,25 -14,31 -10,5 -30,8 -59,8 -25,0 -42,-4 -51,-12 -10,-7 -14,-22 -14,-43l0 -35zm167 88l0 -141 50 0 0 16c4,-7 10,-11 16,-14 6,-3 13,-4 22,-4 11,0 19,2 24,6 4,5 7,12 7,23l0 30 -44 0 0 -14c0,-5 -1,-9 -3,-10 -1,-2 -4,-3 -8,-3 -4,0 -7,1 -8,2 -2,2 -3,6 -3,11l0 98 -53 0z"/>
   </g>
   <g>
    <path class="fil2" d="M1245 712l0 0 -27 -74c121,-44 184,-175 141,-294 -43,-118 -175,-179 -297,-138l-26 -74 0 0c160,-58 336,25 394,185 58,160 -25,337 -185,395zm-66 -464c126,43 179,146 129,249 -20,42 -76,43 -49,-4 57,-105 24,-207 -80,-245zm-621 0c-126,43 -179,146 -129,249 20,42 76,43 49,-4 -57,-105 -24,-207 80,-245zm-66 464l0 0 27 -74c-121,-44 -184,-175 -140,-294 43,-118 174,-179 296,-138l26 -74 0 0c-160,-58 -336,25 -394,185 -58,160 25,337 185,395z"/>
    <path class="fil3" d="M454 809c-3,0 -5,-1 -7,-2 -188,-72 -294,-266 -262,-458 -21,47 -55,77 -92,74 -56,-4 -98,-84 -93,-178 6,-93 56,-166 112,-162 56,5 98,85 93,178 0,6 -1,11 -1,16l0 -1c78,-217 318,-329 534,-251l0 0 -30 85c-175,-57 -363,30 -425,198 -57,155 15,325 162,402 117,49 264,-1 362,-61 41,-25 83,-25 125,0 99,61 237,104 355,64 150,-75 224,-248 167,-405 -62,-168 -250,-255 -425,-198l-30 -85 0 0c217,-78 456,34 534,251l1 1c-1,-5 -2,-10 -2,-16 -5,-93 37,-173 93,-178 56,-4 106,69 112,162 5,94 -37,174 -93,178 -37,3 -71,-27 -92,-74 32,192 -74,386 -262,458 -2,1 -4,2 -6,2l-9 3c-3,15 -4,31 -3,50 10,108 89,191 16,274 -49,56 -196,134 -201,155 9,34 31,37 24,74 -7,34 -125,145 -172,78 11,-5 16,-5 41,-13 39,-13 66,-47 63,-77 -5,-42 -102,-86 -116,-26 -16,21 -37,32 -58,32 -20,0 -41,-11 -57,-32 -14,-60 -111,-16 -116,26 -3,30 24,64 63,77 25,8 32,7 41,13 -47,67 -165,-44 -172,-78 -7,-37 15,-40 24,-74 -5,-21 -152,-99 -201,-155 -73,-83 6,-166 16,-274 2,-16 1,-32 -2,-48l-11 -5zm414 574c-33,-3 -73,-33 -95,-53 -2,-2 -4,-4 -6,-6 -46,23 -45,37 -25,75 59,15 76,-8 91,38 3,1 6,1 8,4 3,7 15,10 27,10 13,0 25,-3 28,-10 1,-3 5,-3 7,-4 16,-46 32,-23 91,-38 21,-38 22,-52 -25,-75 -2,2 -4,4 -5,6 -22,20 -62,50 -96,53zm43 74l20 27 32 -2 34 -3c14,51 -53,60 -129,62 -75,-2 -142,-11 -128,-62l34 3 32 2 20 -27 3 -7c15,4 23,6 39,6 16,0 25,-2 39,-6l4 7zm729 -1105c-30,2 -57,-40 -60,-94 -3,-55 19,-101 49,-103 30,-3 57,40 60,94 3,55 -19,101 -49,103zm-267 371c-6,2 -12,-1 -15,-7 -2,-6 1,-13 7,-15 6,-2 13,1 15,7 3,6 -1,13 -7,15zm150 -252c-6,2 -13,-1 -15,-7 -2,-6 1,-13 7,-15 6,-2 13,1 15,7 2,6 -1,13 -7,15zm-120 -314c-6,2 -13,-1 -15,-7 -2,-6 1,-13 7,-15 6,-2 13,1 15,7 2,6 -1,13 -7,15zm-315 -95c-6,2 -12,-1 -15,-7 -2,-6 1,-13 7,-15 7,-2 13,1 15,7 3,6 0,13 -7,15zm-991 290c30,2 57,-40 60,-94 3,-55 -19,-101 -49,-103 -30,-3 -57,40 -60,94 -3,55 19,101 49,103zm267 371c6,2 13,-1 15,-7 2,-6 -1,-13 -7,-15 -6,-2 -13,1 -15,7 -2,6 1,13 7,15zm-150 -252c6,2 13,-1 15,-7 3,-6 -1,-13 -7,-15 -6,-2 -13,1 -15,7 -2,6 1,13 7,15zm120 -314c6,2 13,-1 15,-7 2,-6 -1,-13 -7,-15 -6,-2 -13,1 -15,7 -2,6 1,13 7,15zm315 -95c6,2 12,-1 15,-7 2,-6 -1,-13 -7,-15 -6,-2 -13,1 -15,7 -3,6 1,13 7,15z"/>
    <g>
     <path class="fil4" d="M1009 1132c-8,60 -48,100 -24,167 16,26 -1,19 39,27 -55,-51 -12,-122 4,-194l-19 -21 0 21z"/>
     <path class="fil4" d="M1223 1107c-22,31 -14,36 -44,58 -26,13 -78,49 -98,66 -73,59 3,22 14,14l137 -104 -9 -34z"/>
     <path class="fil4" d="M596 905l0 0 0 0 0 0 0 0 0 0 0 0 0 0 0 0 0 0 0 0 0 0 0 0 0 0 0 0 1 0 0 0 0 0 0 0 0 0 0 0 0 0 0 0 0 0 0 0 0 0 0 0 0 0 0 0 0 0 0 0 0 0 0 0 0 0 0 0 0 0 0 0 0 0 0 0 0 0 1 0 0 0 0 0 0 0 0 0 0 0 0 0 0 0 0 0 0 0 0 0 0 0 0 0 0 0 0 0 0 0 0 0 0 0 0 0 0 0 0 0 0 0 0 0 0 0 0 0 0 0 0 0 0 0 0 0 0 0 0 0 0 0 0 1 0 0 0 0 0 0 0 0 0 0 0 0 0 0 0 0c54,28 175,72 136,139 -11,-11 -5,1 -13,-20 -9,-25 -2,11 0,-19 -5,-27 -12,-22 -35,-40 -35,-11 -118,-62 -122,-91 12,10 18,17 27,27l5 3z"/>
     <path class="fil4" d="M524 1107c23,31 14,36 45,58 26,13 78,49 98,66 73,59 -3,22 -14,14l-137 -104 8 -34z"/>
     <path class="fil4" d="M738 1105c9,61 49,100 25,167 -16,27 1,19 -39,27 54,-51 12,-122 -5,-194l19 -21 0 21z"/>
     <path class="fil4" d="M539 813c105,-22 241,0 312,83l23 20 23 -20c70,-83 207,-105 311,-83 -108,51 -213,-28 -296,82 -34,44 -14,28 -38,41 -24,-13 -4,3 -38,-41 -83,-110 -189,-31 -297,-82z"/>
     <g>
      <path class="fil4" d="M1035 1083c103,-11 162,-58 167,-147 -112,36 -131,53 -167,147z"/>
      <path class="fil2" d="M1074 1049c55,-6 86,-31 89,-78 -60,19 -69,27 -89,78z"/>
     </g>
     <path class="fil4" d="M713 1083c-103,-11 -162,-58 -168,-147 113,36 132,53 168,147z"/>
     <path class="fil2" d="M673 1049c-54,-6 -85,-31 -88,-78 59,19 69,27 88,78z"/>
    </g>
   </g>
  </g>
 </g>
</svg>
