<?xml version="1.0" encoding="UTF-8"?>
<!DOCTYPE svg PUBLIC "-//W3C//DTD SVG 1.1//EN" "http://www.w3.org/Graphics/SVG/1.1/DTD/svg11.dtd">
<!-- Creator: CorelDRAW X8 -->
<svg xmlns="http://www.w3.org/2000/svg" xml:space="preserve" width="35.8059mm" height="38.0426mm" version="1.1" style="shape-rendering:geometricPrecision; text-rendering:geometricPrecision; image-rendering:optimizeQuality; fill-rule:evenodd; clip-rule:evenodd"
viewBox="0 0 2506 2663"
 xmlns:xlink="http://www.w3.org/1999/xlink">
 <defs>
  <style type="text/css">
   <![CDATA[
    .fil0 {fill:#B6B6B7}
   ]]>
  </style>
 </defs>
 <g id="Layer_x0020_1">
  <metadata id="CorelCorpID_0Corel-Layer"/>
  <g>
   <path id="icon-oil-rig" class="fil0" d="M2247 2530l-301 0c-166,0 -307,-9 -313,-20 -32,-51 -288,-1311 -273,-1338 20,-37 589,-285 610,-266 8,8 65,131 126,273 38,96 82,189 131,280 11,12 20,248 20,545l0 526zm-781 -185c-38,-58 -71,-119 -97,-183 -87,-183 -89,-190 -56,-258 43,-88 52,-71 113,211 19,76 32,153 40,230l0 0zm-256 164l-195 0 100 -199 100 -199 95 182c35,64 67,131 95,199 0,9 -87,16 -193,16l-2 1zm-248 -195c6,-30 33,-154 60,-276l47 -221 41 77 42 77 -101 198c-56,109 -96,173 -91,145l2 0zm-156 178c-9,32 -37,38 -173,38l-158 0 0 -495 -130 0 0 -449 356 -152c205,-89 358,-142 358,-127 0,14 -35,176 -74,359 -39,184 -94,438 -120,561 -26,124 -51,244 -58,265l-1 0zm346 -1051c13,-70 31,-139 51,-207 18,-21 36,28 76,211l43 193 -53 104 -53 103 -53 -103 -54 -106 43 -195zm66 -441c26,1 47,23 47,50 0,3 0,7 -1,10 0,62 -56,84 -94,37 -11,-11 -18,-25 -18,-41 0,-31 26,-56 57,-56 3,0 6,0 9,0l0 0zm1191 1530l-99 0 0 -530c0,-329 8,-526 21,-517 65,40 76,-665 14,-897 -38,-148 -177,-452 -244,-536l-39 -50 -134 238 -135 237 44 102c16,33 29,68 37,105 -3,2 -126,55 -272,117 -233,99 -276,110 -331,91 -18,-6 -37,-9 -57,-9 -84,0 -159,56 -184,136 -6,18 -226,124 -489,236 -263,112 -478,207 -478,211 29,67 62,134 98,198 18,-1 36,-7 51,-17 46,-24 47,-20 47,183l0 207 -129 0 0 248c0,138 -8,248 -17,246 -82,-13 -113,6 -113,69l0 65 2506 0 0 -68c0,-63 -3,-65 -97,-65z"/>
  </g>
 </g>
</svg>
